<?xml version="1.0" encoding="utf-8"?>
<!-- Generator: Adobe Illustrator 19.1.0, SVG Export Plug-In . SVG Version: 6.00 Build 0)  -->
<svg version="1.1" id="Layer_1" xmlns="http://www.w3.org/2000/svg" xmlns:xlink="http://www.w3.org/1999/xlink" x="0px" y="0px"
	 viewBox="0 0 96 96" style="enable-background:new 0 0 96 96;" xml:space="preserve">
<style type="text/css">
	.st0{fill:#9E1D20;}
	.st1{opacity:0.6;}
	.st2{fill:#FFFFFF;}
</style>
<g>
	<g>
		<circle class="st0" cx="48" cy="48" r="48"/>
	</g>
	<g>
		<g class="st1">
			<path d="M36.2,21.1c8.3-4.9,19.5-4.1,27,2c3.6,2.8,6.4,6.7,7.8,11.1c2.1,6,1.7,12.8-1.2,18.5C66.4,60,58.8,65.3,50.7,66
				c0,1.3,0,2.6,0,4c0.8,0,1.6,0,2.4,0c0,2.9,0,5.8,0,8.6c-3.2,0-6.4,0-9.6,0c0-2.9,0-5.8,0-8.6c0.8,0,1.6,0,2.4,0
				c0-1.3,0-2.6,0-3.9c-9.5-0.8-18-7.8-20.7-16.9c-1.8-5.9-1.3-12.6,1.5-18.1C28.8,26.9,32.2,23.4,36.2,21.1 M46.4,23.5
				c-5.7,0.5-11,3.9-14,8.8c-3.1,4.9-3.6,11.2-1.5,16.6c1.6,4.1,4.7,7.5,8.5,9.6c4.1,2.2,9,2.8,13.5,1.6c5.1-1.3,9.6-4.9,11.9-9.6
				c2.9-5.5,2.7-12.4-0.4-17.8C60.9,26.5,53.5,22.6,46.4,23.5L46.4,23.5z"/>
			<path d="M42.8,33.7h-1.9c-0.1,0-0.2,0.1-0.2,0.2v0.3c0,0.1,0.1,0.2,0.2,0.2h1.9c0.1,0,0.2-0.1,0.2-0.2v-0.3
				C43,33.8,42.9,33.7,42.8,33.7z"/>
			<path d="M43.4,31.7L41.6,31c-0.1,0-0.2,0-0.2,0.1l-0.1,0.2c0,0.1,0,0.2,0.1,0.2l1.8,0.7c0.1,0,0.2,0,0.2-0.1l0.1-0.2
				C43.5,31.8,43.5,31.7,43.4,31.7z"/>
			<path d="M44.3,30.4c0.1,0.1,0.2,0.1,0.2,0l0.2-0.2c0.1-0.1,0.1-0.2,0-0.2l-1.3-1.3c-0.1-0.1-0.2-0.1-0.2,0l-0.2,0.2
				c-0.1,0.1-0.1,0.2,0,0.2L44.3,30.4z"/>
			<path d="M46,29.2c0,0.1,0.1,0.1,0.2,0.1l0.2-0.1c0.1,0,0.1-0.1,0.1-0.2l-0.7-1.7c0-0.1-0.1-0.1-0.2-0.1l-0.2,0.1
				c-0.1,0-0.1,0.1-0.1,0.2L46,29.2z"/>
			<path d="M48.2,28.9l0.3,0c0.1,0,0.2-0.1,0.2-0.2l0-1.9c0-0.1-0.1-0.2-0.2-0.2l-0.3,0c-0.1,0-0.2,0.1-0.2,0.2l0,1.9
				C48.1,28.8,48.1,28.9,48.2,28.9z"/>
			<path d="M50.2,29.3l0.2,0.1c0.1,0,0.2,0,0.2-0.1l0.7-1.8c0-0.1,0-0.2-0.1-0.2l-0.2-0.1c-0.1,0-0.2,0-0.2,0.1l-0.7,1.8
				C50.1,29.1,50.1,29.2,50.2,29.3z"/>
			<path d="M52.1,30.6c0.1,0.1,0.2,0.1,0.2,0l1.3-1.4c0.1-0.1,0.1-0.2,0-0.2l-0.2-0.2c-0.1-0.1-0.2-0.1-0.2,0l-1.3,1.4
				c-0.1,0.1-0.1,0.2,0,0.2L52.1,30.6z"/>
			<path d="M55.2,31.4l-0.1-0.2c0-0.1-0.1-0.1-0.2-0.1l-1.7,0.8c-0.1,0-0.1,0.1-0.1,0.2l0.1,0.2c0,0.1,0.1,0.1,0.2,0.1l1.7-0.8
				C55.2,31.6,55.3,31.5,55.2,31.4z"/>
			<path d="M55.7,34c0-0.1-0.1-0.2-0.2-0.2l-1.9,0c-0.1,0-0.2,0.1-0.2,0.2l0,0.3c0,0.1,0.1,0.2,0.2,0.2l1.9,0c0.1,0,0.2-0.1,0.2-0.2
				L55.7,34z"/>
			<path d="M48.8,38.5c0.1-1,0.4-2.1,0.6-2.6c0,0-0.1,0-0.1,0h0c-0.1,0-0.2-0.1-0.3-0.2c0-0.1-0.1-0.1-0.1-0.1c0,0-0.1,0-0.1,0.1
				c0,0.1-0.1,0.2-0.3,0.2h0c-0.1,0-0.2-0.1-0.3-0.2c0-0.1-0.1-0.1-0.1-0.1c0,0-0.1,0-0.1,0.1c0,0.1-0.1,0.2-0.3,0.2h0
				c-0.1,0-0.2-0.1-0.3-0.2c0-0.1-0.1-0.1-0.1-0.1c0,0-0.1,0-0.1,0.1c0,0.1-0.1,0.2-0.3,0.2c0,0,0,0,0,0c0,0-0.1,0-0.1,0
				c0.2,0.5,0.5,1.6,0.7,2.6c0.1,1.1,0,2.4,0,2.5c0,0,0,0,0,0h1.2c0,0,0,0,0,0C48.8,41,48.7,39.6,48.8,38.5z"/>
			<path d="M50.8,31.3c0,0-0.9-0.8-2.5-0.8c-1.6,0-2.5,0.8-2.5,0.8c-1.6,1.1-1.6,2.9-1.6,2.9c-0.2,1.4,1.4,4,1.4,4
				c0.8,1.2,1.1,2.7,1.1,2.9c0,0,0,0,0,0h0.7c0,0,0,0,0,0c0,0,0.1-1.3,0-2.4c-0.2-1.4-0.7-2.8-0.8-2.9c0,0,0,0,0-0.1
				c0-0.1,0-0.1,0.1-0.1h0c0.1,0,0.2,0.1,0.3,0.2c0,0.1,0.1,0.1,0.1,0.1c0,0,0.1,0,0.1-0.1c0-0.1,0.1-0.2,0.3-0.2l0,0h0h0.1v0
				c0.1,0,0.2,0.1,0.2,0.2c0,0.1,0,0.1,0.1,0.1c0,0,0.1,0,0.1-0.1c0-0.1,0.1-0.2,0.3-0.2h0c0.1,0,0.2,0.1,0.3,0.2
				c0,0.1,0.1,0.1,0.1,0.1c0,0,0.1,0,0.1-0.1c0-0.1,0.1-0.2,0.3-0.2h0c0.1,0,0.2,0.1,0.3,0.2c0,0.1,0.1,0.1,0.1,0.1
				c0,0,0.1,0,0.1-0.1c0-0.1,0.1-0.2,0.3-0.2h0c0.1,0,0.1,0,0.1,0.1c0,0,0,0,0,0.1c-0.1,0.2-0.6,1.6-0.8,3C48.8,39.6,49,41,49,41
				c0,0,0,0,0,0.1h0.8c0,0,0,0,0,0c0-0.3,0.3-1.7,1.1-2.9c0,0,1.6-2.5,1.4-4C52.4,34.2,52.4,32.4,50.8,31.3z"/>
			<path d="M47,41.6v1.2c0.3,0.1,0.6,0.2,0.9,0.3c0.6,0.1,1.2,0,1.7-0.3v-1.2H47z"/>
			<path d="M58.5,33c0,2.3,2,4.2,4.5,4.2c0.7,0,1.4-0.2,2-0.5c-0.9-2.8-2.4-5.2-4.4-7.2C59.4,30.2,58.5,31.5,58.5,33z"/>
			<path d="M65.9,42c0-1.3-0.1-2.5-0.4-3.7c-0.4-0.1-0.8-0.2-1.3-0.2h-2.4c-1,0-1.9,0.3-2.6,0.9c0,0-0.1,0-0.1,0
				c-0.8,0.5-1.5,1.2-2.1,2c-1.5,1.7-3.2,3.7-7.9,4.1c-1.1,0.1-1.8,1-1.7,2c0.1,0.9,0.9,1.6,1.9,1.6c0.1,0,0.1,0,0.2,0
				c4-0.4,6.4-1.7,8.1-3.1v11.2C62.6,53.7,65.9,48.2,65.9,42z"/>
			<path d="M38.9,33c0-1.7-1.1-3.2-2.7-3.8c-2.1,1.9-3.6,4.3-4.6,7c0.8,0.6,1.8,1,2.9,1C36.9,37.1,38.9,35.3,38.9,33z"/>
			<path d="M39.7,45.6c1.5,1.3,3.7,2.5,7.1,3c-0.3-0.4-0.5-0.8-0.6-1.3c-0.1-0.9,0.3-1.7,0.9-2.3c-3.8-0.7-5.3-2.4-6.7-4
				c-0.7-0.8-1.3-1.5-2.1-2c0,0-0.1,0-0.1,0c-0.7-0.5-1.6-0.9-2.6-0.9h-2.4c-0.9,0-1.7,0.3-2.4,0.7c-0.2,1-0.3,2.1-0.3,3.2
				c0,6.5,3.6,12.2,8.8,15.3h0.3V45.6z"/>
		</g>
		<g>
			<path class="st2" d="M35.7,20.6c8.3-4.9,19.5-4.1,27,2c3.6,2.8,6.4,6.7,7.8,11.1c2.1,6,1.7,12.8-1.2,18.5
				c-3.6,7.4-11.1,12.6-19.3,13.4c0,1.3,0,2.6,0,4c0.8,0,1.6,0,2.4,0c0,2.9,0,5.8,0,8.6c-3.2,0-6.4,0-9.6,0c0-2.9,0-5.8,0-8.6
				c0.8,0,1.6,0,2.4,0c0-1.3,0-2.6,0-3.9c-9.5-0.8-18-7.8-20.7-16.9c-1.8-5.9-1.3-12.6,1.5-18.1C28.3,26.4,31.7,22.9,35.7,20.6
				 M45.9,23c-5.7,0.5-11,3.9-14,8.8c-3.1,4.9-3.6,11.2-1.5,16.6c1.6,4.1,4.7,7.5,8.5,9.6c4.1,2.2,9,2.8,13.5,1.6
				c5.1-1.3,9.6-4.9,11.9-9.6c2.9-5.5,2.7-12.4-0.4-17.8C60.4,26,53,22.2,45.9,23L45.9,23z"/>
			<path class="st2" d="M42.3,33.2h-1.9c-0.1,0-0.2,0.1-0.2,0.2v0.3c0,0.1,0.1,0.2,0.2,0.2h1.9c0.1,0,0.2-0.1,0.2-0.2v-0.3
				C42.5,33.3,42.4,33.2,42.3,33.2z"/>
			<path class="st2" d="M42.9,31.2l-1.8-0.7c-0.1,0-0.2,0-0.2,0.1l-0.1,0.2c0,0.1,0,0.2,0.1,0.2l1.8,0.7c0.1,0,0.2,0,0.2-0.1
				l0.1-0.2C43,31.3,43,31.2,42.9,31.2z"/>
			<path class="st2" d="M43.8,30C43.9,30,44,30,44,30l0.2-0.2c0.1-0.1,0.1-0.2,0-0.2l-1.3-1.3c-0.1-0.1-0.2-0.1-0.2,0l-0.2,0.2
				c-0.1,0.1-0.1,0.2,0,0.2L43.8,30z"/>
			<path class="st2" d="M45.5,28.7c0,0.1,0.1,0.1,0.2,0.1l0.2-0.1c0.1,0,0.1-0.1,0.1-0.2l-0.7-1.7c0-0.1-0.1-0.1-0.2-0.1l-0.2,0.1
				c-0.1,0-0.1,0.1-0.1,0.2L45.5,28.7z"/>
			<path class="st2" d="M47.7,28.4l0.3,0c0.1,0,0.2-0.1,0.2-0.2l0-1.9c0-0.1-0.1-0.2-0.2-0.2l-0.3,0c-0.1,0-0.2,0.1-0.2,0.2l0,1.9
				C47.6,28.3,47.6,28.4,47.7,28.4z"/>
			<path class="st2" d="M49.7,28.8l0.2,0.1c0.1,0,0.2,0,0.2-0.1l0.7-1.8c0-0.1,0-0.2-0.1-0.2l-0.2-0.1c-0.1,0-0.2,0-0.2,0.1
				l-0.7,1.8C49.6,28.7,49.6,28.8,49.7,28.8z"/>
			<path class="st2" d="M51.6,30.1c0.1,0.1,0.2,0.1,0.2,0l1.3-1.4c0.1-0.1,0.1-0.2,0-0.2L53,28.3c-0.1-0.1-0.2-0.1-0.2,0l-1.3,1.4
				c-0.1,0.1-0.1,0.2,0,0.2L51.6,30.1z"/>
			<path class="st2" d="M54.7,30.9l-0.1-0.2c0-0.1-0.1-0.1-0.2-0.1l-1.7,0.8c-0.1,0-0.1,0.1-0.1,0.2l0.1,0.2c0,0.1,0.1,0.1,0.2,0.1
				l1.7-0.8C54.7,31.1,54.8,31,54.7,30.9z"/>
			<path class="st2" d="M55.2,33.5c0-0.1-0.1-0.2-0.2-0.2l-1.9,0c-0.1,0-0.2,0.1-0.2,0.2l0,0.3c0,0.1,0.1,0.2,0.2,0.2l1.9,0
				c0.1,0,0.2-0.1,0.2-0.2L55.2,33.5z"/>
			<path class="st2" d="M48.3,38c0.1-1,0.4-2.1,0.6-2.6c0,0-0.1,0-0.1,0h0c-0.1,0-0.2-0.1-0.3-0.2c0-0.1-0.1-0.1-0.1-0.1
				c0,0-0.1,0-0.1,0.1c0,0.1-0.1,0.2-0.3,0.2h0c-0.1,0-0.2-0.1-0.3-0.2c0-0.1-0.1-0.1-0.1-0.1c0,0-0.1,0-0.1,0.1
				c0,0.1-0.1,0.2-0.3,0.2h0c-0.1,0-0.2-0.1-0.3-0.2c0-0.1-0.1-0.1-0.1-0.1c0,0-0.1,0-0.1,0.1c0,0.1-0.1,0.2-0.3,0.2c0,0,0,0,0,0
				c0,0-0.1,0-0.1,0c0.2,0.5,0.5,1.6,0.7,2.6c0.1,1.1,0,2.4,0,2.5c0,0,0,0,0,0h1.2c0,0,0,0,0,0C48.3,40.5,48.2,39.1,48.3,38z"/>
			<path class="st2" d="M50.3,30.8c0,0-0.9-0.8-2.5-0.8c-1.6,0-2.5,0.8-2.5,0.8c-1.6,1.1-1.6,2.9-1.6,2.9c-0.2,1.4,1.4,4,1.4,4
				c0.8,1.2,1.1,2.7,1.1,2.9c0,0,0,0,0,0H47c0,0,0,0,0,0c0,0,0.1-1.3,0-2.4c-0.2-1.4-0.7-2.8-0.8-2.9c0,0,0,0,0-0.1
				c0-0.1,0-0.1,0.1-0.1h0c0.1,0,0.2,0.1,0.3,0.2c0,0.1,0.1,0.1,0.1,0.1c0,0,0.1,0,0.1-0.1c0-0.1,0.1-0.2,0.3-0.2l0,0h0H47v0
				c0.1,0,0.2,0.1,0.2,0.2c0,0.1,0,0.1,0.1,0.1c0,0,0.1,0,0.1-0.1c0-0.1,0.1-0.2,0.3-0.2h0c0.1,0,0.2,0.1,0.3,0.2
				c0,0.1,0.1,0.1,0.1,0.1c0,0,0.1,0,0.1-0.1c0-0.1,0.1-0.2,0.3-0.2h0c0.1,0,0.2,0.1,0.3,0.2c0,0.1,0.1,0.1,0.1,0.1
				c0,0,0.1,0,0.1-0.1c0-0.1,0.1-0.2,0.3-0.2h0c0.1,0,0.1,0,0.1,0.1c0,0,0,0,0,0.1c-0.1,0.2-0.6,1.6-0.8,3c-0.1,1,0.1,2.4,0.1,2.4
				c0,0,0,0,0,0.1h0.8c0,0,0,0,0,0c0-0.3,0.3-1.7,1.1-2.9c0,0,1.6-2.5,1.4-4C51.9,33.7,51.9,31.9,50.3,30.8z"/>
			<path class="st2" d="M46.5,41.1v1.2c0.3,0.1,0.6,0.2,0.9,0.3c0.6,0.1,1.2,0,1.7-0.3v-1.2H46.5z"/>
			<path class="st2" d="M58,32.5c0,2.3,2,4.2,4.5,4.2c0.7,0,1.4-0.2,2-0.5c-0.9-2.8-2.4-5.2-4.4-7.2C58.9,29.7,58,31,58,32.5z"/>
			<path class="st2" d="M65.4,41.5c0-1.3-0.1-2.5-0.4-3.7c-0.4-0.1-0.8-0.2-1.3-0.2h-2.4c-1,0-1.9,0.3-2.6,0.9c0,0-0.1,0-0.1,0
				c-0.8,0.5-1.5,1.2-2.1,2c-1.5,1.7-3.2,3.7-7.9,4.1c-1.1,0.1-1.8,1-1.7,2c0.1,0.9,0.9,1.6,1.9,1.6c0.1,0,0.1,0,0.2,0
				c4-0.4,6.4-1.7,8.1-3.1v11.2C62.1,53.2,65.4,47.8,65.4,41.5z"/>
			<path class="st2" d="M38.4,32.5c0-1.7-1.1-3.2-2.7-3.8c-2.1,1.9-3.6,4.3-4.6,7c0.8,0.6,1.8,1,2.9,1
				C36.4,36.6,38.4,34.8,38.4,32.5z"/>
			<path class="st2" d="M39.2,45.1c1.5,1.3,3.7,2.5,7.1,3c-0.3-0.4-0.5-0.8-0.6-1.3c-0.1-0.9,0.3-1.7,0.9-2.3
				c-3.8-0.7-5.3-2.4-6.7-4c-0.7-0.8-1.3-1.5-2.1-2c0,0-0.1,0-0.1,0c-0.7-0.5-1.6-0.9-2.6-0.9h-2.4c-0.9,0-1.7,0.3-2.4,0.7
				c-0.2,1-0.3,2.1-0.3,3.2c0,6.5,3.6,12.2,8.8,15.3h0.3V45.1z"/>
		</g>
	</g>
</g>
</svg>
