<?xml version="1.0" encoding="utf-8"?>
<!-- Generator: Adobe Illustrator 19.1.0, SVG Export Plug-In . SVG Version: 6.00 Build 0)  -->
<svg version="1.1" id="Layer_1" xmlns="http://www.w3.org/2000/svg" xmlns:xlink="http://www.w3.org/1999/xlink" x="0px" y="0px"
	 viewBox="0 0 96 96" style="enable-background:new 0 0 96 96;" xml:space="preserve">
<style type="text/css">
	.st0{fill:#9E1D20;}
	.st1{opacity:0.6;}
	.st2{fill:none;}
	.st3{fill:#FFFFFF;}
</style>
<g>
	<circle class="st0" cx="48" cy="48" r="48"/>
	<g>
		<g class="st1">
			<path d="M56,65.4c0.2,3.1,0.5,5.9,0.7,8.1c0.1,0.7,0.3,1.3,0.4,1.8C56.7,72.1,56.4,68.7,56,65.4z"/>
			<path d="M42,18.2C27.6,22.3,23.7,31,23.7,31h9.7C36.4,23.3,42,18.2,42,18.2z"/>
			<path d="M32.4,34.1H21.4c-3.2,5.7-3.2,12.3-3.2,12.3h12.4C29.9,41.4,32.4,34.1,32.4,34.1z"/>
			<path d="M30.5,49.4H18.2c0.6,8.5,3.4,12.7,3.4,12.7h10.7C30.8,57.8,30.5,49.4,30.5,49.4z"/>
			<path d="M23.7,64.8C28.1,73.6,42,77.6,42,77.6c-6.9-6.9-8.3-12.8-8.3-12.8H23.7z"/>
			<path d="M36.6,31H47V18.2C40.5,22,36.6,31,36.6,31z"/>
			<path d="M33.4,46.3H47V34.1H35.8C35.8,34.1,33.7,39,33.4,46.3z"/>
			<path d="M35.8,62H47V49.4H33.4C33.2,55.6,35.8,62,35.8,62z"/>
			<path d="M47,77.6V64.8H36.6C36.6,64.8,40.5,74.2,47,77.6z"/>
			<path d="M63.3,32.4c2.9-0.3,5.5-2.7,6.1-5.6c0.5-2.3-0.3-4.8-1.9-6.4c-1.5-1.5-3.6-2.3-5.7-2.1c-2.7,0.3-5.2,2.2-6.1,4.8
				c-0.9,2.4-0.3,5.3,1.4,7.1C58.6,31.9,61,32.8,63.3,32.4z"/>
			<path d="M74.2,37.2c-2.6-0.5-5.1-1-7.7-1.5c-1.4,2.1-6.9,2.1-8.3,0c-2.6,0.5-5.2,1-7.7,1.6c0,5.8,0,11.6,0,17.4
				c0.9,0.7,1.9,1.5,2.8,2.2l1.3-12.5c0,0,0.7,11.5,1.4,21c0.4,3.3,0.7,6.7,1.1,10c0.3,1.3,0.4,2.2,0.3,2.4c3.3,0.6,6.6,0.7,9.9,0
				c0.6-4.9,1.1-9.9,1.7-14.9c0.7-8.9,1.3-18.5,1.3-18.5l1.3,12.4c0.9-0.7,1.8-1.4,2.7-2.1C74.2,48.9,74.3,43.1,74.2,37.2z"/>
		</g>
		<g>
			<path class="st2" d="M55.5,64.9c0.2,3.1,0.5,5.9,0.7,8.1c0.1,0.7,0.3,1.3,0.4,1.8C56.2,71.5,55.9,68.2,55.5,64.9z"/>
			<path class="st3" d="M41.5,17.7c-14.4,4-18.2,12.8-18.2,12.8H33C35.9,22.8,41.5,17.7,41.5,17.7z"/>
			<path class="st3" d="M31.9,33.5H20.9c-3.2,5.7-3.2,12.3-3.2,12.3h12.4C29.4,40.8,31.9,33.5,31.9,33.5z"/>
			<path class="st3" d="M30,48.9H17.8c0.6,8.5,3.4,12.7,3.4,12.7h10.7C30.3,57.2,30,48.9,30,48.9z"/>
			<path class="st3" d="M23.2,64.3c4.4,8.8,18.2,12.8,18.2,12.8c-6.9-6.9-8.3-12.8-8.3-12.8H23.2z"/>
			<path class="st3" d="M36.1,30.5h10.3V17.7C40,21.5,36.1,30.5,36.1,30.5z"/>
			<path class="st3" d="M33,45.8h13.5V33.5H35.3C35.3,33.5,33.2,38.5,33,45.8z"/>
			<path class="st3" d="M35.3,61.5h11.2V48.9H33C32.7,55.1,35.3,61.5,35.3,61.5z"/>
			<path class="st3" d="M46.5,77.1V64.3H36.1C36.1,64.3,40,73.7,46.5,77.1z"/>
			<path class="st3" d="M62.8,31.9c2.9-0.3,5.5-2.7,6.1-5.6c0.5-2.3-0.3-4.8-1.9-6.4c-1.5-1.5-3.6-2.3-5.7-2.1
				c-2.7,0.3-5.2,2.2-6.1,4.8c-0.9,2.4-0.3,5.3,1.4,7.1C58.1,31.4,60.5,32.2,62.8,31.9z"/>
			<path class="st3" d="M73.7,36.7c-2.6-0.5-5.1-1-7.7-1.5c-1.4,2.1-6.9,2.1-8.3,0c-2.6,0.5-5.2,1-7.7,1.6c0,5.8,0,11.6,0,17.4
				c0.9,0.7,1.9,1.5,2.8,2.2l1.3-12.5c0,0,0.7,11.5,1.4,21c0.4,3.3,0.7,6.7,1.1,10c0.3,1.3,0.4,2.2,0.3,2.4c3.3,0.6,6.6,0.7,9.9,0
				c0.6-4.9,1.1-9.9,1.7-14.9c0.7-8.9,1.3-18.5,1.3-18.5L71,56.3c0.9-0.7,1.8-1.4,2.7-2.1C73.8,48.4,73.8,42.5,73.7,36.7z"/>
		</g>
	</g>
</g>
</svg>
