<?xml version="1.0" encoding="utf-8"?>
<!-- Generator: Adobe Illustrator 19.1.0, SVG Export Plug-In . SVG Version: 6.00 Build 0)  -->
<svg version="1.1" id="Layer_1" xmlns="http://www.w3.org/2000/svg" xmlns:xlink="http://www.w3.org/1999/xlink" x="0px" y="0px"
	 viewBox="0 0 96 96" style="enable-background:new 0 0 96 96;" xml:space="preserve">
<style type="text/css">
	.st0{fill:#9E1D20;}
	.st1{opacity:0.6;}
	.st2{fill:#FFFFFF;}
</style>
<g>
	<circle class="st0" cx="48" cy="48" r="48"/>
	<g class="st1">
		<g>
			<path d="M65.1,42V20.2H30.9V42H65.1z M66.9,19.2v23.6c0,0.5-0.4,0.9-0.9,0.9H30c-0.5,0-0.9-0.4-0.9-0.9V19.2
				c0-0.5,0.4-0.9,0.9-0.9h36C66.5,18.3,66.9,18.7,66.9,19.2z"/>
			<path d="M41.3,71.2h-12c-1.3,0-2.3,1-2.3,2.3c0,1.3,1,2.3,2.3,2.3h12c-0.2-0.7-0.4-1.5-0.4-2.3C40.9,72.7,41.1,71.9,41.3,71.2z"
				/>
			<path d="M50.3,66.8v-9.7h-4.6v9.7c0.7-0.2,1.5-0.4,2.3-0.4C48.8,66.4,49.6,66.5,50.3,66.8z"/>
			<path d="M66.6,71.2h-12c0.2,0.7,0.4,1.5,0.4,2.3c0,0.8-0.1,1.6-0.4,2.3h12c1.3,0,2.3-1,2.3-2.3C68.9,72.2,67.9,71.2,66.6,71.2z"
				/>
			<circle cx="48" cy="73.5" r="5.5"/>
			<path d="M74.8,57c0.3,0.4,0.1,0.8-0.4,0.8H21.6c-0.5,0-0.7-0.3-0.4-0.8l7.9-11.4h37.9L74.8,57z"/>
		</g>
		<g>
			<path d="M55.7,33.4c-1.7-0.3-3.4-0.7-5.1-1c-0.9,1.4-4.6,1.4-5.5,0c-1.7,0.3-3.4,0.7-5.1,1c0,2.2,0,4.5,0,6.7h15.8
				C55.7,37.9,55.7,35.7,55.7,33.4z"/>
		</g>
		<path d="M48.4,30.5c1.9-0.2,3.6-1.8,4-3.7c0.3-1.5-0.2-3.1-1.3-4.2c-1-1-2.4-1.5-3.8-1.4c-1.8,0.2-3.4,1.4-4,3.1
			c-0.6,1.6-0.2,3.4,0.9,4.7C45.4,30.1,46.9,30.7,48.4,30.5z"/>
	</g>
	<g>
		<g>
			<path class="st2" d="M65.1,41.4V19.6H30.9v21.8H65.1z M66.9,18.7v23.6c0,0.5-0.4,0.9-0.9,0.9H30c-0.5,0-0.9-0.4-0.9-0.9V18.7
				c0-0.5,0.4-0.9,0.9-0.9h36C66.5,17.8,66.9,18.2,66.9,18.7z"/>
			<path class="st2" d="M41.3,70.6h-12c-1.3,0-2.3,1-2.3,2.3c0,1.3,1,2.3,2.3,2.3h12c-0.2-0.7-0.4-1.5-0.4-2.3
				C40.9,72.1,41.1,71.3,41.3,70.6z"/>
			<path class="st2" d="M50.3,66.2v-9.7h-4.6v9.7c0.7-0.2,1.5-0.4,2.3-0.4C48.8,65.8,49.6,66,50.3,66.2z"/>
			<path class="st2" d="M66.6,70.6h-12c0.2,0.7,0.4,1.5,0.4,2.3c0,0.8-0.1,1.6-0.4,2.3h12c1.3,0,2.3-1,2.3-2.3
				C68.9,71.6,67.9,70.6,66.6,70.6z"/>
			<circle class="st2" cx="48" cy="72.9" r="5.5"/>
			<path class="st2" d="M74.8,56.4c0.3,0.4,0.1,0.8-0.4,0.8H21.6c-0.5,0-0.7-0.3-0.4-0.8L29.1,45h37.9L74.8,56.4z"/>
		</g>
		<g>
			<path class="st2" d="M55.9,33.1c-1.7-0.3-3.4-0.7-5.1-1c-0.9,1.4-4.6,1.4-5.5,0c-1.7,0.3-3.4,0.7-5.1,1c0,2.2,0,4.5,0,6.7h15.8
				C55.9,37.6,55.9,35.3,55.9,33.1z"/>
		</g>
		<path class="st2" d="M48.6,30.1c1.9-0.2,3.6-1.8,4-3.7c0.3-1.5-0.2-3.1-1.3-4.2c-1-1-2.4-1.5-3.8-1.4c-1.8,0.2-3.4,1.4-4,3.1
			c-0.6,1.6-0.2,3.4,0.9,4.7C45.5,29.7,47.1,30.3,48.6,30.1z"/>
	</g>
</g>
</svg>
