<?xml version="1.0" encoding="utf-8"?>
<!-- Generator: Adobe Illustrator 19.1.0, SVG Export Plug-In . SVG Version: 6.00 Build 0)  -->
<svg version="1.1" id="Layer_1" xmlns="http://www.w3.org/2000/svg" xmlns:xlink="http://www.w3.org/1999/xlink" x="0px" y="0px"
	 viewBox="0 0 96 96" style="enable-background:new 0 0 96 96;" xml:space="preserve">
<style type="text/css">
	.st0{fill:#9E1D20;}
	.st1{opacity:0.6;}
	.st2{fill:#FFFFFF;}
</style>
<circle class="st0" cx="48" cy="48" r="48"/>
<g>
	<g class="st1">
		<g>
			<path d="M36.8,22.5c7.9-4.7,18.5-3.9,25.6,1.9c3.4,2.7,6,6.4,7.4,10.5c2,5.7,1.6,12.2-1.1,17.6c-3.4,7-10.5,12-18.3,12.7
				c0,1.3,0,2.5,0,3.8c0.8,0,1.5,0,2.3,0c0,2.7,0,5.5,0,8.2c-3,0-6.1,0-9.1,0c0-2.7,0-5.5,0-8.2c0.8,0,1.5,0,2.3,0
				c0-1.3,0-2.5,0-3.7c-9-0.8-17-7.4-19.6-16c-1.7-5.6-1.2-11.9,1.5-17.1C29.8,28,33,24.7,36.8,22.5 M46.5,24.8
				c-5.4,0.5-10.5,3.7-13.3,8.3c-2.9,4.6-3.4,10.6-1.4,15.7c1.5,3.9,4.4,7.1,8.1,9.1c3.9,2.1,8.5,2.7,12.8,1.5
				c4.8-1.2,9.1-4.6,11.3-9.1c2.7-5.2,2.6-11.8-0.4-16.8C60.2,27.6,53.3,24,46.5,24.8L46.5,24.8z"/>
			<path d="M46.9,32.2c2.4-0.6,5,0.4,6.4,2.4c1.6,2.1,1.6,5.3-0.1,7.5c-1.2,1.6-3.1,2.6-5.1,2.5c-3,0-5.7-2.5-6.1-5.5
				C41.6,36,43.8,32.8,46.9,32.2L46.9,32.2z"/>
			<path d="M37.8,48.7c2.3-0.5,4.5-0.9,6.8-1.4c1.2,1.9,6,1.8,7.3,0c2.3,0.4,4.5,0.9,6.8,1.4c0,1.3,0,2.6,0,3.8
				c-3,3.1-7.5,4.8-11.8,4.3c-3.4-0.3-6.6-1.9-9-4.3C37.8,51.3,37.9,50,37.8,48.7L37.8,48.7z"/>
			<path d="M28.9,61.8c1.9,1.8,4,3.4,6.3,4.7c-0.1,1.6-0.4,3.2-0.5,4.8c-1.6,0-3.2,0-4.8,0C29.6,68.2,29.2,65,28.9,61.8L28.9,61.8z"
				/>
			<path d="M61.3,66.5c2.3-1.2,4.4-2.9,6.3-4.7c-0.3,3.2-0.7,6.3-1,9.5c-1.6,0-3.2,0-4.8,0C61.7,69.7,61.4,68.1,61.3,66.5L61.3,66.5
				z"/>
		</g>
		<path d="M19.2,47.8c1.5-0.2,2.8-1.4,3.1-2.9c0.3-1.2-0.1-2.5-1-3.3c-0.8-0.8-1.9-1.2-3-1.1c-1.4,0.1-2.7,1.1-3.1,2.5
			c-0.4,1.2-0.2,2.7,0.7,3.7C16.7,47.5,18,47.9,19.2,47.8z"/>
		<path d="M24.8,50.2c-1.3-0.2-2.6-0.5-4-0.8c-0.7,1.1-3.6,1.1-4.3,0c-1.3,0.3-2.7,0.5-4,0.8c0,3,0,6,0,9c0.5,0.4,1,0.7,1.5,1.1
			l0.7-6.4c0,0,0.4,5.9,0.7,10.8c0.2,1.7,0.4,3.4,0.6,5.1c0.1,0.7,0.2,1.1,0.2,1.2c1.7,0.3,3.4,0.3,5.1,0c0.3-2.5,0.6-5.1,0.9-7.7
			c0.3-4.6,0.6-9.6,0.6-9.6l0.7,6.4c0.5-0.4,0.9-0.7,1.4-1.1C24.8,56.2,24.8,53.2,24.8,50.2z"/>
		<path d="M78.3,47.9c1.5-0.2,2.8-1.4,3.1-2.9c0.3-1.2-0.1-2.5-1-3.3c-0.8-0.8-1.9-1.2-3-1.1c-1.4,0.1-2.7,1.1-3.1,2.5
			c-0.4,1.2-0.2,2.7,0.7,3.7C75.9,47.6,77.2,48.1,78.3,47.9z"/>
		<path d="M84,50.4c-1.3-0.2-2.6-0.5-4-0.8c-0.7,1.1-3.6,1.1-4.3,0c-1.3,0.3-2.7,0.5-4,0.8c0,3,0,6,0,9c0.5,0.4,1,0.7,1.5,1.1
			l0.7-6.4c0,0,0.4,5.9,0.7,10.8c0.2,1.7,0.4,3.4,0.6,5.1c0.1,0.7,0.2,1.1,0.2,1.2c1.7,0.3,3.4,0.3,5.1,0c0.3-2.5,0.6-5.1,0.9-7.7
			c0.3-4.6,0.6-9.6,0.6-9.6l0.7,6.4c0.5-0.4,0.9-0.7,1.4-1.1C84,56.4,84,53.4,84,50.4z"/>
	</g>
	<g>
		<g>
			<path class="st2" d="M36.3,21.9c7.9-4.7,18.5-3.9,25.6,1.9c3.4,2.7,6,6.4,7.4,10.5c2,5.7,1.6,12.2-1.1,17.6
				c-3.4,7-10.5,12-18.3,12.7c0,1.3,0,2.5,0,3.8c0.8,0,1.5,0,2.3,0c0,2.7,0,5.5,0,8.2c-3,0-6.1,0-9.1,0c0-2.7,0-5.5,0-8.2
				c0.8,0,1.5,0,2.3,0c0-1.3,0-2.5,0-3.7c-9-0.8-17-7.4-19.6-16c-1.7-5.6-1.2-11.9,1.5-17.1C29.3,27.5,32.5,24.1,36.3,21.9 M46,24.2
				c-5.4,0.5-10.5,3.7-13.3,8.3c-2.9,4.6-3.4,10.6-1.4,15.7c1.5,3.9,4.4,7.1,8.1,9.1c3.9,2.1,8.5,2.7,12.8,1.5
				c4.8-1.2,9.1-4.6,11.3-9.1C66.2,44.6,66,38,63,33C59.7,27.1,52.7,23.4,46,24.2L46,24.2z"/>
			<path class="st2" d="M46.4,31.6c2.4-0.6,5,0.4,6.4,2.4c1.6,2.1,1.6,5.3-0.1,7.5c-1.2,1.6-3.1,2.6-5.1,2.5c-3,0-5.7-2.5-6.1-5.5
				C41.1,35.4,43.3,32.2,46.4,31.6L46.4,31.6z"/>
			<path class="st2" d="M37.3,48.1c2.3-0.5,4.5-0.9,6.8-1.4c1.2,1.9,6,1.8,7.3,0c2.3,0.4,4.5,0.9,6.8,1.4c0,1.3,0,2.6,0,3.8
				c-3,3.1-7.5,4.8-11.8,4.3c-3.4-0.3-6.6-1.9-9-4.3C37.2,50.7,37.4,49.4,37.3,48.1L37.3,48.1z"/>
			<path class="st2" d="M28.4,61.3c1.9,1.8,4,3.4,6.3,4.7c-0.1,1.6-0.4,3.2-0.5,4.8c-1.6,0-3.2,0-4.8,0
				C29.1,67.6,28.7,64.4,28.4,61.3L28.4,61.3z"/>
			<path class="st2" d="M60.8,65.9c2.3-1.2,4.4-2.9,6.3-4.7c-0.3,3.2-0.7,6.3-1,9.5c-1.6,0-3.2,0-4.8,0
				C61.1,69.2,60.9,67.6,60.8,65.9L60.8,65.9z"/>
		</g>
		<path class="st2" d="M18.6,47.2c1.5-0.2,2.8-1.4,3.1-2.9c0.3-1.2-0.1-2.5-1-3.3c-0.8-0.8-1.9-1.2-3-1.1c-1.4,0.1-2.7,1.1-3.1,2.5
			c-0.4,1.2-0.2,2.7,0.7,3.7C16.2,46.9,17.5,47.4,18.6,47.2z"/>
		<path class="st2" d="M24.3,49.7c-1.3-0.2-2.6-0.5-4-0.8c-0.7,1.1-3.6,1.1-4.3,0c-1.3,0.3-2.7,0.5-4,0.8c0,3,0,6,0,9
			c0.5,0.4,1,0.7,1.5,1.1l0.7-6.4c0,0,0.4,5.9,0.7,10.8c0.2,1.7,0.4,3.4,0.6,5.1c0.1,0.7,0.2,1.1,0.2,1.2c1.7,0.3,3.4,0.3,5.1,0
			c0.3-2.5,0.6-5.1,0.9-7.7c0.3-4.6,0.6-9.6,0.6-9.6l0.7,6.4c0.5-0.4,0.9-0.7,1.4-1.1C24.3,55.7,24.3,52.7,24.3,49.7z"/>
		<path class="st2" d="M77.8,47.3c1.5-0.2,2.8-1.4,3.1-2.9c0.3-1.2-0.1-2.5-1-3.3c-0.8-0.8-1.9-1.2-3-1.1c-1.4,0.1-2.7,1.1-3.1,2.5
			c-0.4,1.2-0.2,2.7,0.7,3.7C75.4,47,76.6,47.5,77.8,47.3z"/>
		<path class="st2" d="M83.4,49.8c-1.3-0.2-2.6-0.5-4-0.8c-0.7,1.1-3.6,1.1-4.3,0c-1.3,0.3-2.7,0.5-4,0.8c0,3,0,6,0,9
			c0.5,0.4,1,0.7,1.5,1.1l0.7-6.4c0,0,0.4,5.9,0.7,10.8c0.2,1.7,0.4,3.4,0.6,5.1c0.1,0.7,0.2,1.1,0.2,1.2c1.7,0.3,3.4,0.3,5.1,0
			c0.3-2.5,0.6-5.1,0.9-7.7c0.3-4.6,0.6-9.6,0.6-9.6l0.7,6.4c0.5-0.4,0.9-0.7,1.4-1.1C83.5,55.8,83.5,52.8,83.4,49.8z"/>
	</g>
</g>
</svg>
