<?xml version="1.0" encoding="utf-8"?>
<!-- Generator: Adobe Illustrator 19.1.0, SVG Export Plug-In . SVG Version: 6.00 Build 0)  -->
<svg version="1.1" id="Layer_1" xmlns="http://www.w3.org/2000/svg" xmlns:xlink="http://www.w3.org/1999/xlink" x="0px" y="0px"
	 viewBox="0 0 96 96" style="enable-background:new 0 0 96 96;" xml:space="preserve">
<style type="text/css">
	.st0{fill:#9E1D20;}
	.st1{opacity:0.6;}
	.st2{fill:#FFFFFF;}
</style>
<g>
	<g>
		<circle class="st0" cx="48" cy="48" r="48"/>
	</g>
	<g>
		<g class="st1">
			<path d="M45.9,63.5c-0.4,2.6-0.8,4.9-1.1,7.3c-0.5,0.1-1.1,0.2-1.6,0.2c-4.3,0-8.7,0-13,0c-0.6,0-1.2,0-1.8-0.1
				c-1.9-0.3-3.3-1.7-3.5-3.6c-0.1-0.9-0.1-1.8-0.1-2.6c0-6.5,0-13,0-19.5c0-1.4,0.4-2.5,1.3-3.5c1.6-1.7,3.1-3.6,4.7-5.3
				c1.1-1.2,2.1-2.3,1.9-4c1.6-0.5,17.4-0.6,19.3-0.2c0.8,1.3,1.4,2.4,2.2,3.3c1.9,2.2,3.9,4.3,5.9,6.4c0.8,0.9,1.3,1.8,1.3,3.1
				c-0.1,2.6-0.1,5.3,0,7.9c0,1-0.3,1.7-1.2,2.1C59,55.4,56.1,57,56.1,57s0.1-1.4,0.1-1.9c0-2.2,0-4.5,0-6.7
				c-0.1-2.3-0.9-3.2-3.2-3.2c-6.8,0-13.7,0-20.5,0c-2.4,0-3.2,0.9-3.2,3.4c0,3.8,0,7.6,0,11.4c0,2.7,0.8,3.5,3.5,3.5
				c3.7,0,7.4,0,11.2,0C44.5,63.5,45.1,63.5,45.9,63.5z"/>
			<path d="M46.4,69.2c0.1-4.1,2.1-7.1,5.6-8.8c4.8-2.3,9.7-4.4,14.6-6.5c4.1-1.7,8.7-0.4,11.2,2.9c2.9,3.8,2.1,9.5-1.9,12.6
				c-0.6,0.5-1.3,0.9-2.1,1.3c-4.8,2.2-9.6,4.3-14.5,6.4c-2.9,1.2-5.8,1-8.6-0.6C47.9,75,46.5,72.4,46.4,69.2z M59.9,58.9
				c-2.9,1.4-5.6,2.4-8.1,3.8c-2.8,1.6-4,5-3.3,7.8c1.1,4.3,5.5,6.5,9.9,4.9c2.3-0.8,4.4-1.9,6.7-2.9c0.3-0.1,0.5-0.2,0.8-0.3
				C63.8,67.7,61.9,63.5,59.9,58.9z"/>
			<path d="M42.7,31.1c-3.4,0-6.7,0-10.1,0c-2.6,0-3.4-0.8-3.4-3.4c0-1.8-0.1-3.6,0-5.5c0.1-2.3,0.9-3.2,3.3-3.2
				c6.8,0,13.6,0,20.4,0c2.3,0,3.3,1,3.3,3.4c0,1.8,0,3.6,0,5.5c0,2.3-1,3.2-3.4,3.3C49.4,31.1,46,31.1,42.7,31.1z"/>
			<path d="M49,52c0,1.3,0,2.3,0,3.2c0,0.8-0.4,1.2-1.2,1.2c-0.9,0-1.9,0-3,0c-0.1,1.6-0.1,2.9-0.2,4.4c-1.4,0-2.7,0-4.1,0
				c-0.1-1.4-0.2-2.8-0.3-4.3c-1.4-0.1-2.6-0.1-3.9-0.2c-0.6-1.4-0.4-2.8-0.2-4.3c1.3-0.1,2.5-0.2,4-0.3c0.1-1.4,0.2-2.8,0.3-4.3
				c1.3,0,2.6,0,4,0c0.1,1.4,0.2,2.8,0.4,4.3C46.2,51.9,47.4,51.9,49,52z"/>
		</g>
		<g>
			<path class="st2" d="M45.3,63c-0.4,2.6-0.8,4.9-1.1,7.3c-0.5,0.1-1.1,0.2-1.6,0.2c-4.3,0-8.7,0-13,0c-0.6,0-1.2,0-1.8-0.1
				c-1.9-0.3-3.3-1.7-3.5-3.6c-0.1-0.9-0.1-1.8-0.1-2.6c0-6.5,0-13,0-19.5c0-1.4,0.4-2.5,1.3-3.5c1.6-1.7,3.1-3.6,4.7-5.3
				c1.1-1.2,2.1-2.3,1.9-4c1.6-0.5,17.4-0.6,19.3-0.2c0.8,1.3,1.4,2.4,2.2,3.3c1.9,2.2,3.9,4.3,5.9,6.4c0.8,0.9,1.3,1.8,1.3,3.1
				c-0.1,2.6-0.1,5.3,0,7.9c0,1-0.3,1.7-1.2,2.1c-1.2,0.6-2.6,1.3-4,2c0,0,0-1.3,0-1.8c0-2.2,0-4.5,0-6.7c-0.1-2.3-0.9-3.2-3.2-3.2
				c-6.8,0-13.7,0-20.5,0c-2.4,0-3.2,0.9-3.2,3.4c0,3.8,0,7.6,0,11.4c0,2.7,0.8,3.5,3.5,3.5c3.7,0,7.4,0,11.2,0
				C43.9,63,44.6,63,45.3,63z"/>
			<path class="st2" d="M45.8,68.8c0.1-4.1,2.1-7.1,5.6-8.8c4.8-2.3,9.7-4.4,14.6-6.5c4.1-1.7,8.7-0.4,11.2,2.9
				c2.9,3.8,2.1,9.5-1.9,12.6c-0.6,0.5-1.3,0.9-2.1,1.3c-4.8,2.2-9.6,4.3-14.5,6.4c-2.9,1.2-5.8,1-8.6-0.6
				C47.3,74.5,45.9,72,45.8,68.8z M59.3,58.5c-2.9,1.4-5.6,2.4-8.1,3.8c-2.8,1.6-4,5-3.3,7.8c1.1,4.3,5.5,6.5,9.9,4.9
				c2.3-0.8,4.4-1.9,6.7-2.9c0.3-0.1,0.5-0.2,0.8-0.3C63.3,67.3,61.4,63,59.3,58.5z"/>
			<path class="st2" d="M42.1,30.6c-3.4,0-6.7,0-10.1,0c-2.6,0-3.4-0.8-3.4-3.4c0-1.8-0.1-3.6,0-5.5c0.1-2.3,0.9-3.2,3.3-3.2
				c6.8,0,13.6,0,20.4,0c2.3,0,3.3,1,3.3,3.4c0,1.8,0,3.6,0,5.5c0,2.3-1,3.2-3.4,3.3C48.8,30.6,45.4,30.6,42.1,30.6z"/>
			<path class="st2" d="M48.4,51.6c0,1.3,0,2.3,0,3.2c0,0.8-0.4,1.2-1.2,1.2c-0.9,0-1.9,0-3,0c-0.1,1.6-0.1,2.9-0.2,4.4
				c-1.4,0-2.7,0-4.1,0c-0.1-1.4-0.2-2.8-0.3-4.3c-1.4-0.1-2.6-0.1-3.9-0.2c-0.6-1.4-0.4-2.8-0.2-4.3c1.3-0.1,2.5-0.2,4-0.3
				c0.1-1.4,0.2-2.8,0.3-4.3c1.3,0,2.6,0,4,0c0.1,1.4,0.2,2.8,0.4,4.3C45.6,51.4,46.8,51.5,48.4,51.6z"/>
		</g>
	</g>
</g>
</svg>
