<?xml version="1.0" encoding="utf-8"?>
<!-- Generator: Adobe Illustrator 19.1.0, SVG Export Plug-In . SVG Version: 6.00 Build 0)  -->
<svg version="1.1" id="Layer_1" xmlns="http://www.w3.org/2000/svg" xmlns:xlink="http://www.w3.org/1999/xlink" x="0px" y="0px"
	 viewBox="0 0 96 96" style="enable-background:new 0 0 96 96;" xml:space="preserve">
<style type="text/css">
	.st0{fill:#9E1D20;}
	.st1{opacity:0.6;}
	.st2{fill:#FFFFFF;}
</style>
<g>
	<circle class="st0" cx="48" cy="48" r="48"/>
	<g>
		<g class="st1">
			<g>
				<g>
					<path d="M37.8,45.1c0,0-0.2-0.2-0.6-0.6c-0.4-0.3-0.9-0.9-1.5-1.7c-0.6-0.8-1.3-1.8-1.8-3.1c-0.3-0.6-0.5-1.4-0.7-2.1
						c-0.2-0.8-0.3-1.6-0.4-2.5c0-0.2,0-0.4-0.1-0.7l0,0l0-0.1l0-0.1l0-0.2l0-0.3c0-0.2,0-0.4,0-0.7c0-0.1,0-0.2,0-0.3l0-0.4
						c0-0.2,0.1-0.5,0.1-0.7c0-0.2,0.1-0.5,0.1-0.7c0.1-0.5,0.2-1,0.4-1.5c0.6-1.9,1.6-3.9,3-5.6c1.4-1.7,3.3-3.2,5.4-4.2l0.4-0.2
						c0.1-0.1,0.3-0.1,0.4-0.2l0.8-0.3c0.3-0.1,0.6-0.2,0.9-0.3l0.9-0.2c0.6-0.1,1.2-0.2,1.8-0.3l0.9,0l0.4,0l0.2,0l0,0l0.1,0l0.1,0
						l0.1,0l0.8,0c0.3,0,0.6,0,0.9,0.1l0.9,0.1c0.2,0,0.3,0,0.5,0.1l0.4,0.1l0.9,0.2c0.1,0,0.3,0.1,0.4,0.1l0.4,0.2l0.8,0.3l0.8,0.4
						c2.1,1,3.9,2.6,5.3,4.3c1.4,1.8,2.3,3.7,2.9,5.7c0.1,0.5,0.2,1,0.3,1.5c0.1,0.5,0.1,1,0.2,1.4c0,0.5,0,0.9,0,1.4l0,0.2l0,0l0,0
						l0,0.1l0,0.1c0,0.1,0,0.2,0,0.3c0,0.2,0,0.4-0.1,0.6c0,0.2,0,0.4-0.1,0.6c0,0.2-0.1,0.4-0.1,0.6c0,0.2-0.1,0.4-0.1,0.6
						c0,0.1,0,0.2-0.1,0.3c0,0.1-0.1,0.2-0.1,0.3c-0.1,0.4-0.2,0.7-0.4,1.1c-0.1,0.4-0.3,0.7-0.4,1c-0.1,0.2-0.1,0.3-0.2,0.5
						c-0.1,0.2-0.2,0.3-0.2,0.4c-0.2,0.3-0.3,0.6-0.5,0.8C62,41.9,62,42,61.9,42.2c-0.1,0.1-0.2,0.2-0.2,0.3
						c-0.2,0.2-0.3,0.4-0.5,0.6c-0.6,0.8-1.2,1.3-1.6,1.7c-0.4,0.4-0.6,0.5-0.6,0.5s0.2-0.2,0.5-0.6c0.1-0.1,0.2-0.2,0.3-0.3
						c0.1-0.1,0.1-0.1,0.2-0.2c0-0.1,0.1-0.1,0.2-0.2c0.2-0.3,0.5-0.7,0.7-1.1c0.1-0.2,0.2-0.4,0.4-0.7c0.1-0.1,0.1-0.2,0.2-0.4
						c0.1-0.1,0.1-0.2,0.2-0.4c0.2-0.5,0.5-1.1,0.7-1.7c0.1-0.3,0.2-0.6,0.3-1c0.1-0.3,0.1-0.7,0.2-1.1c0-0.1,0-0.2,0.1-0.3
						c0-0.1,0-0.2,0-0.3c0-0.2,0-0.4,0.1-0.6c0-0.2,0-0.4,0.1-0.6c0-0.2,0-0.4,0-0.6c0.1-1.6-0.2-3.4-0.7-5.1
						c-0.6-1.7-1.5-3.4-2.8-4.9c-1.3-1.5-2.9-2.8-4.8-3.6L54,21.4l-0.7-0.3c-0.2-0.1-0.5-0.2-0.7-0.2l-0.8-0.2l-0.4-0.1
						c-0.1,0-0.2,0-0.4-0.1l-0.7-0.1c-0.2,0-0.5-0.1-0.8-0.1l-0.8,0l-0.1,0l-0.1,0c0,0-0.1,0,0,0l0,0l-0.2,0l-0.4,0l-0.8,0
						c-0.5,0.1-1,0.1-1.5,0.2l-0.8,0.2c-0.2,0.1-0.5,0.1-0.7,0.2l-0.7,0.3c-0.1,0-0.2,0.1-0.4,0.1l-0.3,0.2
						c-1.9,0.8-3.5,2.1-4.9,3.5c-1.3,1.5-2.3,3.1-2.9,4.9c-0.2,0.4-0.3,0.9-0.4,1.3c-0.1,0.2-0.1,0.4-0.1,0.6c0,0.2-0.1,0.4-0.1,0.6
						l-0.1,0.3c0,0.1,0,0.2,0,0.3c0,0.2,0,0.4-0.1,0.7l0,0.3l0,0.2l0,0.1l0,0c0,0,0,0,0,0l0,0c0,0.2,0,0.4,0,0.6
						c0,0.8,0.1,1.6,0.2,2.3c0.2,0.7,0.3,1.4,0.5,2.1c0.4,1.3,0.9,2.3,1.4,3.2c0.5,0.8,0.9,1.5,1.3,1.9
						C37.7,44.9,37.8,45.1,37.8,45.1z"/>
					<path d="M41.9,41.1c0,0-0.1-0.1-0.4-0.3c-0.2-0.2-0.6-0.6-0.9-1.1c-0.4-0.5-0.8-1.1-1.1-1.9c-0.2-0.4-0.3-0.8-0.5-1.3
						c-0.1-0.5-0.2-1-0.2-1.5c0-0.1,0-0.3,0-0.4l0,0v0l0,0l0-0.1l0-0.2c0-0.1,0-0.3,0-0.4c0-0.1,0-0.1,0-0.2l0-0.2
						c0-0.1,0-0.3,0.1-0.5c0-0.2,0-0.3,0.1-0.5c0.1-0.3,0.1-0.6,0.2-0.9c0.4-1.2,1-2.4,1.9-3.5c0.9-1.1,2-2,3.3-2.6l0.2-0.1
						c0.1,0,0.2-0.1,0.3-0.1l0.5-0.2c0.2-0.1,0.3-0.1,0.5-0.2l0.5-0.1c0.4-0.1,0.7-0.1,1.1-0.2l0.6,0l0.3,0l0.1,0l0,0l0.1,0l0,0
						l0.1,0l0.5,0c0.2,0,0.3,0,0.5,0l0.6,0.1c0.1,0,0.2,0,0.3,0l0.3,0.1l0.5,0.1c0.1,0,0.2,0.1,0.3,0.1l0.3,0.1l0.5,0.2l0.5,0.2
						c1.3,0.6,2.4,1.6,3.3,2.7c0.9,1.1,1.4,2.3,1.8,3.5c0.1,0.3,0.1,0.6,0.2,0.9c0,0.3,0.1,0.6,0.1,0.9c0,0.3,0,0.6,0,0.9l0,0.1l0,0
						v0l0,0l0,0.1c0,0.1,0,0.1,0,0.2c0,0.1,0,0.3,0,0.4c0,0.1,0,0.3,0,0.4c0,0.1-0.1,0.3-0.1,0.4c0,0.1,0,0.3-0.1,0.4
						c0,0.1,0,0.1,0,0.2c0,0.1,0,0.1-0.1,0.2c-0.1,0.2-0.1,0.5-0.2,0.7c-0.1,0.2-0.2,0.4-0.3,0.6c0,0.1-0.1,0.2-0.1,0.3
						c0,0.1-0.1,0.2-0.1,0.3c-0.1,0.2-0.2,0.3-0.3,0.5c0,0.1-0.1,0.2-0.1,0.2c-0.1,0.1-0.1,0.1-0.2,0.2c-0.1,0.1-0.2,0.3-0.3,0.4
						c-0.4,0.5-0.7,0.8-1,1c-0.2,0.2-0.4,0.3-0.4,0.3s0.1-0.1,0.3-0.4c0.1-0.1,0.1-0.1,0.2-0.2c0,0,0.1-0.1,0.1-0.1
						c0,0,0.1-0.1,0.1-0.1c0.1-0.2,0.3-0.4,0.4-0.7c0.1-0.1,0.1-0.3,0.2-0.4c0-0.1,0.1-0.1,0.1-0.2c0-0.1,0.1-0.2,0.1-0.2
						c0.1-0.3,0.3-0.7,0.4-1.1c0.1-0.2,0.1-0.4,0.2-0.6c0-0.2,0.1-0.4,0.1-0.7c0-0.1,0-0.1,0-0.2c0-0.1,0-0.1,0-0.2
						c0-0.1,0-0.2,0-0.3c0-0.1,0-0.2,0-0.4c0-0.1,0-0.3,0-0.4c0-1-0.1-2.1-0.5-3.1c-0.4-1.1-0.9-2.1-1.7-3c-0.8-0.9-1.8-1.7-2.9-2.2
						l-0.4-0.2l-0.4-0.2c-0.2,0-0.3-0.1-0.5-0.2l-0.5-0.1L50.3,26c-0.1,0-0.2,0-0.2,0l-0.5-0.1c-0.1,0-0.3,0-0.5,0l-0.5,0l-0.1,0
						l0,0c0,0,0,0,0,0l0,0l-0.1,0l-0.2,0l-0.5,0c-0.3,0-0.6,0.1-0.9,0.1l-0.5,0.1c-0.2,0-0.3,0.1-0.5,0.1l-0.4,0.2
						c-0.1,0-0.2,0.1-0.2,0.1l-0.2,0.1c-1.2,0.5-2.2,1.3-3,2.2c-0.8,0.9-1.4,1.9-1.8,3c-0.1,0.3-0.2,0.5-0.2,0.8
						c0,0.1-0.1,0.3-0.1,0.4c0,0.1-0.1,0.3-0.1,0.4l0,0.2c0,0.1,0,0.1,0,0.2c0,0.1,0,0.3,0,0.4l0,0.2l0,0.1l0,0l0,0c0,0,0,0,0,0l0,0
						c0,0.1,0,0.3,0,0.4c0,0.5,0.1,1,0.1,1.4c0.1,0.4,0.2,0.9,0.3,1.3c0.2,0.8,0.6,1.4,0.8,2c0.3,0.5,0.6,0.9,0.8,1.2
						C41.8,41,41.9,41.1,41.9,41.1z"/>
				</g>
			</g>
			<g>
				<path d="M49.2,40.5c2.4-0.3,4.5-2.3,5-4.7c0.4-1.9-0.2-4-1.6-5.3c-1.2-1.2-3-1.9-4.7-1.7c-2.2,0.2-4.3,1.8-5,3.9
					c-0.7,2-0.2,4.3,1.2,5.9C45.3,40,47.3,40.8,49.2,40.5z"/>
				<path d="M58.2,44.5c-2.1-0.4-4.2-0.9-6.4-1.3c-1.2,1.7-5.7,1.8-6.9,0c-2.1,0.4-4.3,0.8-6.4,1.3c0,4.8,0,9.6,0,14.4
					c0.8,0.6,1.6,1.2,2.3,1.8L42,50.3c0,0,0.6,9.5,1.2,17.3c0.3,2.7,0.6,5.5,0.9,8.2c0.2,1.1,0.3,1.8,0.3,2c2.7,0.5,5.5,0.6,8.2,0
					c0.5-4.1,0.9-8.2,1.4-12.3c0.6-7.4,1-15.3,1-15.3l1,10.3c0.7-0.6,1.5-1.2,2.3-1.8C58.2,54.1,58.2,49.3,58.2,44.5z"/>
			</g>
			<g>
				<path d="M72.1,44.6c1.6-0.2,3-1.5,3.3-3c0.3-1.2-0.1-2.6-1-3.5c-0.8-0.8-2-1.2-3.1-1.1c-1.5,0.1-2.8,1.2-3.3,2.6
					c-0.5,1.3-0.2,2.8,0.8,3.8C69.5,44.3,70.8,44.8,72.1,44.6z"/>
				<path d="M78,47.2c-1.4-0.3-2.8-0.6-4.2-0.8c-0.8,1.1-3.7,1.2-4.5,0c-1.4,0.3-2.8,0.6-4.2,0.8c0,3.1,0,6.3,0,9.4
					c0.5,0.4,1,0.8,1.5,1.2l0.7-6.8c0,0,0.4,6.2,0.8,11.4c0.2,1.8,0.4,3.6,0.6,5.4c0.1,0.7,0.2,1.2,0.2,1.3c1.8,0.3,3.6,0.4,5.3,0
					c0.3-2.7,0.6-5.4,0.9-8c0.4-4.8,0.7-10,0.7-10l0.7,6.7c0.5-0.4,1-0.8,1.5-1.1C78,53.5,78,50.3,78,47.2z"/>
			</g>
			<g>
				<path d="M25.4,44.6c1.6-0.2,3-1.5,3.3-3c0.3-1.2-0.1-2.6-1-3.5c-0.8-0.8-2-1.2-3.1-1.1c-1.5,0.1-2.8,1.2-3.3,2.6
					c-0.5,1.3-0.2,2.8,0.8,3.8C22.9,44.3,24.2,44.8,25.4,44.6z"/>
				<path d="M31.3,47.2c-1.4-0.3-2.8-0.6-4.2-0.8c-0.8,1.1-3.7,1.2-4.5,0c-1.4,0.3-2.8,0.6-4.2,0.8c0,3.1,0,6.3,0,9.4
					c0.5,0.4,1,0.8,1.5,1.2l0.7-6.8c0,0,0.4,6.2,0.8,11.4c0.2,1.8,0.4,3.6,0.6,5.4c0.1,0.7,0.2,1.2,0.2,1.3c1.8,0.3,3.6,0.4,5.3,0
					c0.3-2.7,0.6-5.4,0.9-8c0.4-4.8,0.7-10,0.7-10l0.7,6.7c0.5-0.4,1-0.8,1.5-1.1C31.3,53.5,31.3,50.3,31.3,47.2z"/>
			</g>
		</g>
		<g>
			<g>
				<g>
					<path class="st2" d="M37.4,44.6c0,0-0.2-0.2-0.6-0.6c-0.4-0.3-0.9-0.9-1.5-1.7c-0.6-0.8-1.3-1.8-1.8-3.1
						c-0.3-0.6-0.5-1.4-0.7-2.1c-0.2-0.8-0.3-1.6-0.4-2.5c0-0.2,0-0.4-0.1-0.7l0,0l0-0.1l0-0.1l0-0.2l0-0.3c0-0.2,0-0.4,0-0.7
						c0-0.1,0-0.2,0-0.3l0-0.4c0-0.2,0.1-0.5,0.1-0.7c0-0.2,0.1-0.5,0.1-0.7c0.1-0.5,0.2-1,0.4-1.5c0.6-1.9,1.6-3.9,3-5.6
						c1.4-1.7,3.3-3.2,5.4-4.2l0.4-0.2c0.1-0.1,0.3-0.1,0.4-0.2l0.8-0.3c0.3-0.1,0.6-0.2,0.9-0.3l0.9-0.2c0.6-0.1,1.2-0.2,1.8-0.3
						l0.9,0l0.4,0l0.2,0l0,0l0.1,0l0.1,0l0.1,0l0.8,0c0.3,0,0.6,0,0.9,0.1l0.9,0.1c0.2,0,0.3,0,0.5,0.1l0.4,0.1l0.9,0.2
						c0.1,0,0.3,0.1,0.4,0.1l0.4,0.2l0.8,0.3l0.8,0.4c2.1,1,3.9,2.6,5.3,4.3c1.4,1.8,2.3,3.7,2.9,5.7c0.1,0.5,0.2,1,0.3,1.5
						c0.1,0.5,0.1,1,0.2,1.4c0,0.5,0,0.9,0,1.4l0,0.2l0,0l0,0l0,0.1l0,0.1c0,0.1,0,0.2,0,0.3c0,0.2,0,0.4-0.1,0.6
						c0,0.2,0,0.4-0.1,0.6c0,0.2-0.1,0.4-0.1,0.6c0,0.2-0.1,0.4-0.1,0.6c0,0.1,0,0.2-0.1,0.3c0,0.1-0.1,0.2-0.1,0.3
						c-0.1,0.4-0.2,0.7-0.4,1.1c-0.1,0.4-0.3,0.7-0.4,1c-0.1,0.2-0.1,0.3-0.2,0.5c-0.1,0.2-0.2,0.3-0.2,0.4
						c-0.2,0.3-0.3,0.6-0.5,0.8c-0.1,0.1-0.2,0.3-0.2,0.4c-0.1,0.1-0.2,0.2-0.2,0.3c-0.2,0.2-0.3,0.4-0.5,0.6
						c-0.6,0.8-1.2,1.3-1.6,1.7c-0.4,0.4-0.6,0.5-0.6,0.5s0.2-0.2,0.5-0.6c0.1-0.1,0.2-0.2,0.3-0.3c0.1-0.1,0.1-0.1,0.2-0.2
						c0-0.1,0.1-0.1,0.2-0.2c0.2-0.3,0.5-0.7,0.7-1.1c0.1-0.2,0.2-0.4,0.4-0.7c0.1-0.1,0.1-0.2,0.2-0.4c0.1-0.1,0.1-0.2,0.2-0.4
						c0.2-0.5,0.5-1.1,0.7-1.7c0.1-0.3,0.2-0.6,0.3-1c0.1-0.3,0.1-0.7,0.2-1.1c0-0.1,0-0.2,0.1-0.3c0-0.1,0-0.2,0-0.3
						c0-0.2,0-0.4,0.1-0.6c0-0.2,0-0.4,0.1-0.6c0-0.2,0-0.4,0-0.6c0.1-1.6-0.2-3.4-0.7-5.1c-0.6-1.7-1.5-3.4-2.8-4.9
						c-1.3-1.5-2.9-2.8-4.8-3.6L53.6,21l-0.7-0.3c-0.2-0.1-0.5-0.2-0.7-0.2l-0.8-0.2L51,20.2c-0.1,0-0.2,0-0.4-0.1L49.9,20
						c-0.2,0-0.5-0.1-0.8-0.1l-0.8,0l-0.1,0l-0.1,0c0,0-0.1,0,0,0l0,0l-0.2,0l-0.4,0l-0.8,0c-0.5,0.1-1,0.1-1.5,0.2l-0.8,0.2
						c-0.2,0.1-0.5,0.1-0.7,0.2l-0.7,0.3c-0.1,0-0.2,0.1-0.4,0.1l-0.3,0.2c-1.9,0.8-3.5,2.1-4.9,3.5c-1.3,1.5-2.3,3.1-2.9,4.9
						c-0.2,0.4-0.3,0.9-0.4,1.3C34,31,34,31.2,33.9,31.4c0,0.2-0.1,0.4-0.1,0.6l-0.1,0.3c0,0.1,0,0.2,0,0.3c0,0.2,0,0.4-0.1,0.7
						l0,0.3l0,0.2l0,0.1l0,0c0,0,0,0,0,0l0,0c0,0.2,0,0.4,0,0.6c0,0.8,0.1,1.6,0.2,2.3c0.2,0.7,0.3,1.4,0.5,2.1
						c0.4,1.3,0.9,2.3,1.4,3.2c0.5,0.8,0.9,1.5,1.3,1.9C37.2,44.4,37.4,44.6,37.4,44.6z"/>
					<path class="st2" d="M41.5,40.7c0,0-0.1-0.1-0.4-0.3c-0.2-0.2-0.6-0.6-0.9-1.1c-0.4-0.5-0.8-1.1-1.1-1.9
						c-0.2-0.4-0.3-0.8-0.5-1.3c-0.1-0.5-0.2-1-0.2-1.5c0-0.1,0-0.3,0-0.4l0,0v0l0,0l0-0.1l0-0.2c0-0.1,0-0.3,0-0.4
						c0-0.1,0-0.1,0-0.2l0-0.2c0-0.1,0-0.3,0.1-0.5c0-0.2,0-0.3,0.1-0.5c0.1-0.3,0.1-0.6,0.2-0.9c0.4-1.2,1-2.4,1.9-3.5
						c0.9-1.1,2-2,3.3-2.6l0.2-0.1c0.1,0,0.2-0.1,0.3-0.1l0.5-0.2c0.2-0.1,0.3-0.1,0.5-0.2l0.5-0.1c0.4-0.1,0.7-0.1,1.1-0.2l0.6,0
						l0.3,0l0.1,0l0,0l0.1,0l0,0l0.1,0l0.5,0c0.2,0,0.3,0,0.5,0l0.6,0.1c0.1,0,0.2,0,0.3,0l0.3,0.1l0.5,0.1c0.1,0,0.2,0.1,0.3,0.1
						l0.3,0.1l0.5,0.2l0.5,0.2c1.3,0.6,2.4,1.6,3.3,2.7c0.9,1.1,1.4,2.3,1.8,3.5c0.1,0.3,0.1,0.6,0.2,0.9c0,0.3,0.1,0.6,0.1,0.9
						c0,0.3,0,0.6,0,0.9l0,0.1l0,0v0l0,0l0,0.1c0,0.1,0,0.1,0,0.2c0,0.1,0,0.3,0,0.4c0,0.1,0,0.3,0,0.4c0,0.1-0.1,0.3-0.1,0.4
						c0,0.1,0,0.3-0.1,0.4c0,0.1,0,0.1,0,0.2c0,0.1,0,0.1-0.1,0.2c-0.1,0.2-0.1,0.5-0.2,0.7c-0.1,0.2-0.2,0.4-0.3,0.6
						c0,0.1-0.1,0.2-0.1,0.3c0,0.1-0.1,0.2-0.1,0.3c-0.1,0.2-0.2,0.3-0.3,0.5c0,0.1-0.1,0.2-0.1,0.2c-0.1,0.1-0.1,0.1-0.2,0.2
						c-0.1,0.1-0.2,0.3-0.3,0.4c-0.4,0.5-0.7,0.8-1,1c-0.2,0.2-0.4,0.3-0.4,0.3s0.1-0.1,0.3-0.4c0.1-0.1,0.1-0.1,0.2-0.2
						c0,0,0.1-0.1,0.1-0.1c0,0,0.1-0.1,0.1-0.1c0.1-0.2,0.3-0.4,0.4-0.7c0.1-0.1,0.1-0.3,0.2-0.4c0-0.1,0.1-0.1,0.1-0.2
						c0-0.1,0.1-0.2,0.1-0.2c0.1-0.3,0.3-0.7,0.4-1.1c0.1-0.2,0.1-0.4,0.2-0.6c0-0.2,0.1-0.4,0.1-0.7c0-0.1,0-0.1,0-0.2
						c0-0.1,0-0.1,0-0.2c0-0.1,0-0.2,0-0.3c0-0.1,0-0.2,0-0.4c0-0.1,0-0.3,0-0.4c0-1-0.1-2.1-0.5-3.1c-0.4-1.1-0.9-2.1-1.7-3
						c-0.8-0.9-1.8-1.7-2.9-2.2L51.5,26L51,25.9c-0.2,0-0.3-0.1-0.5-0.2l-0.5-0.1l-0.2-0.1c-0.1,0-0.2,0-0.2,0l-0.5-0.1
						c-0.1,0-0.3,0-0.5,0l-0.5,0l-0.1,0l0,0c0,0,0,0,0,0l0,0l-0.1,0l-0.2,0l-0.5,0c-0.3,0-0.6,0.1-0.9,0.1l-0.5,0.1
						c-0.2,0-0.3,0.1-0.5,0.1L44.9,26c-0.1,0-0.2,0.1-0.2,0.1l-0.2,0.1c-1.2,0.5-2.2,1.3-3,2.2c-0.8,0.9-1.4,1.9-1.8,3
						c-0.1,0.3-0.2,0.5-0.2,0.8c0,0.1-0.1,0.3-0.1,0.4c0,0.1-0.1,0.3-0.1,0.4l0,0.2c0,0.1,0,0.1,0,0.2c0,0.1,0,0.3,0,0.4l0,0.2
						l0,0.1l0,0l0,0c0,0,0,0,0,0l0,0c0,0.1,0,0.3,0,0.4c0,0.5,0.1,1,0.1,1.4c0.1,0.4,0.2,0.9,0.3,1.3c0.2,0.8,0.6,1.4,0.8,2
						c0.3,0.5,0.6,0.9,0.8,1.2C41.4,40.5,41.5,40.7,41.5,40.7z"/>
				</g>
			</g>
			<g>
				<path class="st2" d="M48.7,40c2.4-0.3,4.5-2.3,5-4.7c0.4-1.9-0.2-4-1.6-5.3c-1.2-1.2-3-1.9-4.7-1.7c-2.2,0.2-4.3,1.8-5,3.9
					c-0.7,2-0.2,4.3,1.2,5.9C44.8,39.6,46.8,40.3,48.7,40z"/>
				<path class="st2" d="M57.7,44c-2.1-0.4-4.2-0.9-6.4-1.3c-1.2,1.7-5.7,1.8-6.9,0c-2.1,0.4-4.3,0.8-6.4,1.3c0,4.8,0,9.6,0,14.4
					c0.8,0.6,1.6,1.2,2.3,1.8l1.1-10.3c0,0,0.6,9.5,1.2,17.3c0.3,2.7,0.6,5.5,0.9,8.2c0.2,1.1,0.3,1.8,0.3,2c2.7,0.5,5.5,0.6,8.2,0
					c0.5-4.1,0.9-8.2,1.4-12.3c0.6-7.4,1-15.3,1-15.3l1,10.3c0.7-0.6,1.5-1.2,2.3-1.8C57.8,53.6,57.8,48.8,57.7,44z"/>
			</g>
			<g>
				<path class="st2" d="M71.6,44.1c1.6-0.2,3-1.5,3.3-3c0.3-1.2-0.1-2.6-1-3.5c-0.8-0.8-2-1.2-3.1-1.1c-1.5,0.1-2.8,1.2-3.3,2.6
					c-0.5,1.3-0.2,2.8,0.8,3.8C69.1,43.8,70.4,44.3,71.6,44.1z"/>
				<path class="st2" d="M77.5,46.7c-1.4-0.3-2.8-0.6-4.2-0.8c-0.8,1.1-3.7,1.2-4.5,0c-1.4,0.3-2.8,0.6-4.2,0.8c0,3.1,0,6.3,0,9.4
					c0.5,0.4,1,0.8,1.5,1.2l0.7-6.8c0,0,0.4,6.2,0.8,11.4c0.2,1.8,0.4,3.6,0.6,5.4c0.1,0.7,0.2,1.2,0.2,1.3c1.8,0.3,3.6,0.4,5.3,0
					c0.3-2.7,0.6-5.4,0.9-8c0.4-4.8,0.7-10,0.7-10l0.7,6.7c0.5-0.4,1-0.8,1.5-1.1C77.5,53,77.5,49.9,77.5,46.7z"/>
			</g>
			<g>
				<path class="st2" d="M25,44.1c1.6-0.2,3-1.5,3.3-3c0.3-1.2-0.1-2.6-1-3.5c-0.8-0.8-2-1.2-3.1-1.1c-1.5,0.1-2.8,1.2-3.3,2.6
					c-0.5,1.3-0.2,2.8,0.8,3.8C22.4,43.8,23.7,44.3,25,44.1z"/>
				<path class="st2" d="M30.9,46.7c-1.4-0.3-2.8-0.6-4.2-0.8c-0.8,1.1-3.7,1.2-4.5,0c-1.4,0.3-2.8,0.6-4.2,0.8c0,3.1,0,6.3,0,9.4
					c0.5,0.4,1,0.8,1.5,1.2l0.7-6.8c0,0,0.4,6.2,0.8,11.4c0.2,1.8,0.4,3.6,0.6,5.4c0.1,0.7,0.2,1.2,0.2,1.3c1.8,0.3,3.6,0.4,5.3,0
					c0.3-2.7,0.6-5.4,0.9-8c0.4-4.8,0.7-10,0.7-10l0.7,6.7c0.5-0.4,1-0.8,1.5-1.1C30.9,53,30.9,49.9,30.9,46.7z"/>
			</g>
		</g>
	</g>
</g>
</svg>
