<?xml version="1.0" encoding="utf-8"?>
<!-- Generator: Adobe Illustrator 19.1.0, SVG Export Plug-In . SVG Version: 6.00 Build 0)  -->
<svg version="1.1" id="Layer_1" xmlns="http://www.w3.org/2000/svg" xmlns:xlink="http://www.w3.org/1999/xlink" x="0px" y="0px"
	 viewBox="0 0 96 96" style="enable-background:new 0 0 96 96;" xml:space="preserve">
<style type="text/css">
	.st0{fill:#9E1D20;}
	.st1{opacity:0.6;fill-rule:evenodd;clip-rule:evenodd;}
	.st2{fill-rule:evenodd;clip-rule:evenodd;fill:#FFFFFF;}
</style>
<g>
	<circle class="st0" cx="48" cy="48" r="48"/>
</g>
<g>
	<path class="st1" d="M70.2,26.8V24c0-2.8-2.2-5-5-5H28.5c-2.7,0-5,2.2-5,5v43.5H66v-0.9c1.4,0.7,2.8,1.4,4.2,2.1v-9.7V26.8z
		 M66.6,77.6l0.1-8.5L65.4,69l-35.9-0.2h-1.6l-0.1,8.6C34.6,77.4,59.9,77.5,66.6,77.6L66.6,77.6z M22.9,77.4h0.7l0.1-8.6l-2.3-0.1
		l-0.1,8.6L22.9,77.4z M26.1,77.4h0.7l0.1-8.6l-2.3-0.1l-0.1,8.6L26.1,77.4z M75.2,73.4c0-0.4-0.2-0.7-0.5-0.8l-7.1-3.5l-0.1,8.6
		l7.2-3.4C75,74.1,75.2,73.8,75.2,73.4L75.2,73.4z M30.8,62.4H63c0.8,0,1.4,0.6,1.4,1.4l0,0c0,0.8-0.6,1.4-1.4,1.4H30.8
		c-0.8,0-1.4-0.6-1.4-1.4l0,0C29.4,63,30,62.4,30.8,62.4L30.8,62.4z M30.8,55.6H63c0.8,0,1.4,0.7,1.4,1.5l0,0c0,0.8-0.6,1.4-1.4,1.4
		H30.8c-0.8,0-1.4-0.6-1.4-1.4l0,0C29.4,56.3,30,55.6,30.8,55.6L30.8,55.6z M30.8,48.9H63c0.8,0,1.4,0.6,1.4,1.4l0,0
		c0,0.8-0.6,1.4-1.4,1.4H30.8c-0.8,0-1.4-0.6-1.4-1.4l0,0C29.4,49.5,30,48.9,30.8,48.9L30.8,48.9z M30.8,42.1H63
		c0.8,0,1.4,0.6,1.4,1.4l0,0c0,0.8-0.6,1.5-1.4,1.5H30.8c-0.8,0-1.4-0.7-1.4-1.5l0,0C29.4,42.7,30,42.1,30.8,42.1L30.8,42.1z
		 M30.8,35.3H63c0.8,0,1.4,0.7,1.4,1.5l0,0c0,0.8-0.6,1.4-1.4,1.4H30.8c-0.8,0-1.4-0.6-1.4-1.4l0,0C29.4,36,30,35.3,30.8,35.3
		L30.8,35.3z M30.8,28.6H63c0.8,0,1.4,0.6,1.4,1.4l0,0c0,0.8-0.6,1.4-1.4,1.4H30.8c-0.8,0-1.4-0.6-1.4-1.4l0,0
		C29.4,29.2,30,28.6,30.8,28.6L30.8,28.6z M40.3,23.6h13.2c0.8,0,1.5,0.7,1.5,1.5l0,0c0,0.8-0.7,1.4-1.5,1.4H40.3
		c-0.8,0-1.5-0.6-1.5-1.4l0,0C38.8,24.3,39.5,23.6,40.3,23.6L40.3,23.6z"/>
	<path class="st2" d="M69.8,26.2v-2.8c0-2.8-2.2-5-5-5H28c-2.7,0-5,2.2-5,5v43.5h42.5V66c1.4,0.7,2.8,1.4,4.2,2.1v-9.7V26.2z
		 M66.1,77l0.1-8.5l-1.3-0.1L29,68.3h-1.6l-0.1,8.6C34.1,76.9,59.4,77,66.1,77L66.1,77z M22.5,76.8h0.7l0.1-8.6l-2.3-0.1l-0.1,8.6
		L22.5,76.8z M25.7,76.8h0.7l0.1-8.6l-2.3-0.1l-0.1,8.6L25.7,76.8z M74.7,72.9c0-0.4-0.2-0.7-0.5-0.8l-7.1-3.5L67,77.1l7.2-3.4
		C74.5,73.5,74.7,73.2,74.7,72.9L74.7,72.9z M30.3,61.9h32.2c0.8,0,1.4,0.6,1.4,1.4l0,0c0,0.8-0.6,1.4-1.4,1.4H30.3
		c-0.8,0-1.4-0.6-1.4-1.4l0,0C28.9,62.5,29.5,61.9,30.3,61.9L30.3,61.9z M30.3,55.1h32.2c0.8,0,1.4,0.7,1.4,1.5l0,0
		c0,0.8-0.6,1.4-1.4,1.4H30.3c-0.8,0-1.4-0.6-1.4-1.4l0,0C28.9,55.8,29.5,55.1,30.3,55.1L30.3,55.1z M30.3,48.3h32.2
		c0.8,0,1.4,0.6,1.4,1.4l0,0c0,0.8-0.6,1.4-1.4,1.4H30.3c-0.8,0-1.4-0.6-1.4-1.4l0,0C28.9,49,29.5,48.3,30.3,48.3L30.3,48.3z
		 M30.3,41.5h32.2c0.8,0,1.4,0.6,1.4,1.4l0,0c0,0.8-0.6,1.5-1.4,1.5H30.3c-0.8,0-1.4-0.7-1.4-1.5l0,0C28.9,42.2,29.5,41.5,30.3,41.5
		L30.3,41.5z M30.3,34.8h32.2c0.8,0,1.4,0.7,1.4,1.5l0,0c0,0.8-0.6,1.4-1.4,1.4H30.3c-0.8,0-1.4-0.6-1.4-1.4l0,0
		C28.9,35.4,29.5,34.8,30.3,34.8L30.3,34.8z M30.3,28h32.2c0.8,0,1.4,0.6,1.4,1.4l0,0c0,0.8-0.6,1.4-1.4,1.4H30.3
		c-0.8,0-1.4-0.6-1.4-1.4l0,0C28.9,28.6,29.5,28,30.3,28L30.3,28z M39.8,23.1H53c0.8,0,1.5,0.7,1.5,1.5l0,0c0,0.8-0.7,1.4-1.5,1.4
		H39.8c-0.8,0-1.5-0.6-1.5-1.4l0,0C38.3,23.8,39,23.1,39.8,23.1L39.8,23.1z"/>
</g>
</svg>
