<?xml version="1.0" encoding="utf-8"?>
<!-- Generator: Adobe Illustrator 19.1.0, SVG Export Plug-In . SVG Version: 6.00 Build 0)  -->
<svg version="1.1" id="Layer_1" xmlns="http://www.w3.org/2000/svg" xmlns:xlink="http://www.w3.org/1999/xlink" x="0px" y="0px"
	 viewBox="0 0 96 96" style="enable-background:new 0 0 96 96;" xml:space="preserve">
<style type="text/css">
	.st0{fill:#9E1D20;}
	.st1{opacity:0.6;}
	.st2{fill:#FFFFFF;}
</style>
<g>
	<g>
		<circle class="st0" cx="48" cy="48" r="48"/>
	</g>
	<g class="st1">
		<path d="M45.9,24.9c0.9-0.3,6.6-0.2,7.5,0c-0.1,0.2-0.1,0.3-0.2,0.5c-0.6,1.3-0.5,1.8,0.6,2.7c1.3,1.1,2.5,2.3,3.4,3.8
			c1.5,2.4,2.2,4.9,1.3,7.7c-0.4,1.3-0.9,2.6-1.6,3.8c-1.4,2.3-1.5,4.7-0.9,7.1c0.3,1.4,0.8,2.8,1.4,4.1c0.6,1.4,1,2.8,1,4.3
			c0,4.6,0,9.1,0,13.7c0,0.9,0,1.9-0.1,2.8c-0.3,1.8-1.3,3.1-3.1,3.6c-1.1,0.3-2.2,0-3.2-0.6c-0.7-0.4-1.4-0.6-2.2-0.5
			c-0.6,0-1.1,0.1-1.6,0.4c-0.3,0.2-0.6,0.3-1,0.5C44,80,42.1,78.1,41.4,76c-0.2-0.6-0.3-1.3-0.3-2c0-5.2,0-10.4,0-15.6
			c0-1.1,0.2-2.1,0.7-3.1c0.4-0.8,0.7-1.6,1-2.4c0.6-1.7,1.1-3.3,1-5.1c0-1.5-0.4-3-1.2-4.3c-0.9-1.3-1.5-2.8-1.9-4.3
			c-0.7-2.3-0.3-4.6,0.9-6.6c1-1.7,2.3-3.2,3.8-4.5c1.1-1,1.2-1.3,0.7-2.6C46.1,25.4,46,25.2,45.9,24.9z"/>
		<path d="M49.5,18.6c1.1,0,2.2,0,3.4,0c0.7,0,0.8,0.1,0.9,0.8c0,0.9,0,1.7,0,2.6c0,0.9-0.1,1.1-1,1.1c-1,0-2,0-3.1,0
			c-1.1,0-2.2,0-3.3,0c-0.8,0-1-0.2-1-1c0-0.8,0-1.7,0-2.5c0-0.9,0.1-1,1.1-1C47.5,18.6,48.5,18.6,49.5,18.6
			C49.5,18.6,49.5,18.6,49.5,18.6z"/>
	</g>
	<g class="st1">
		<path d="M63.8,32.9c0.8-0.2,5.4-0.2,6.1,0c0,0.1-0.1,0.3-0.1,0.4c-0.5,1.1-0.4,1.4,0.5,2.2c1.1,0.9,2,1.9,2.7,3.1
			c1.3,1.9,1.8,4,1.1,6.3c-0.4,1.1-0.7,2.1-1.3,3.1c-1.1,1.8-1.2,3.8-0.8,5.8c0.3,1.1,0.7,2.2,1.1,3.3c0.5,1.1,0.8,2.3,0.8,3.5
			c0,3.7,0,7.4,0,11.1c0,0.7,0,1.5-0.1,2.2c-0.3,1.4-1,2.5-2.5,2.9c-0.9,0.2-1.8,0-2.6-0.5c-0.6-0.3-1.1-0.5-1.8-0.4
			c-0.5,0-0.9,0.1-1.3,0.3c-0.2,0.1-0.5,0.3-0.8,0.4c-2.5,1-4-0.5-4.6-2.2c-0.2-0.5-0.2-1.1-0.2-1.6c0-4.2,0-8.5,0-12.7
			c0-0.9,0.2-1.7,0.5-2.5c0.3-0.6,0.6-1.3,0.8-1.9c0.5-1.3,0.9-2.7,0.8-4.2c0-1.2-0.3-2.4-1-3.5c-0.7-1.1-1.2-2.2-1.5-3.5
			c-0.5-1.9-0.2-3.7,0.7-5.4c0.8-1.4,1.9-2.6,3.1-3.7c0.9-0.8,1-1,0.5-2.1C63.9,33.2,63.8,33.1,63.8,32.9z"/>
		<path d="M66.7,27.8c0.9,0,1.8,0,2.7,0c0.6,0,0.7,0.1,0.7,0.7c0,0.7,0,1.4,0,2.1c0,0.8-0.1,0.9-0.8,0.9c-0.8,0-1.7,0-2.5,0
			c-0.9,0-1.8,0-2.6,0c-0.7,0-0.8-0.1-0.8-0.8c0-0.7,0-1.3,0-2c0-0.7,0.1-0.8,0.9-0.8C65,27.8,65.9,27.8,66.7,27.8
			C66.7,27.8,66.7,27.8,66.7,27.8z"/>
	</g>
	<g class="st1">
		<path d="M29.4,32.9c0.8-0.2,5.4-0.2,6.1,0c0,0.1-0.1,0.3-0.1,0.4c-0.5,1.1-0.4,1.4,0.5,2.2c1.1,0.9,2,1.9,2.7,3.1
			c1.3,1.9,1.8,4,1.1,6.3c-0.4,1.1-0.7,2.1-1.3,3.1c-1.1,1.8-1.2,3.8-0.8,5.8c0.3,1.1,0.7,2.2,1.1,3.3c0.5,1.1,0.8,2.3,0.8,3.5
			c0,3.7,0,7.4,0,11.1c0,0.7,0,1.5-0.1,2.2c-0.3,1.4-1,2.5-2.5,2.9c-0.9,0.2-1.8,0-2.6-0.5c-0.6-0.3-1.1-0.5-1.8-0.4
			c-0.5,0-0.9,0.1-1.3,0.3c-0.2,0.1-0.5,0.3-0.8,0.4c-2.5,1-4-0.5-4.6-2.2c-0.2-0.5-0.2-1.1-0.2-1.6c0-4.2,0-8.5,0-12.7
			c0-0.9,0.2-1.7,0.5-2.5c0.3-0.6,0.6-1.3,0.8-1.9c0.5-1.3,0.9-2.7,0.8-4.2c0-1.2-0.3-2.4-1-3.5c-0.7-1.1-1.2-2.2-1.5-3.5
			c-0.5-1.9-0.2-3.7,0.7-5.4c0.8-1.4,1.9-2.6,3.1-3.7c0.9-0.8,1-1,0.5-2.1C29.5,33.2,29.5,33.1,29.4,32.9z"/>
		<path d="M32.3,27.8c0.9,0,1.8,0,2.7,0c0.6,0,0.7,0.1,0.7,0.7c0,0.7,0,1.4,0,2.1c0,0.8-0.1,0.9-0.8,0.9c-0.8,0-1.7,0-2.5,0
			c-0.9,0-1.8,0-2.6,0c-0.7,0-0.8-0.1-0.8-0.8c0-0.7,0-1.3,0-2c0-0.7,0.1-0.8,0.9-0.8C30.7,27.8,31.5,27.8,32.3,27.8
			C32.3,27.8,32.3,27.8,32.3,27.8z"/>
	</g>
	<g>
		<path class="st2" d="M45.4,24.3c0.9-0.3,6.6-0.2,7.5,0c-0.1,0.2-0.1,0.3-0.2,0.5c-0.6,1.3-0.5,1.8,0.6,2.7
			c1.3,1.1,2.5,2.3,3.4,3.8c1.5,2.4,2.2,4.9,1.3,7.7c-0.4,1.3-0.9,2.6-1.6,3.8c-1.4,2.3-1.5,4.7-0.9,7.1c0.3,1.4,0.8,2.8,1.4,4.1
			c0.6,1.4,1,2.8,1,4.3c0,4.6,0,9.1,0,13.7c0,0.9,0,1.9-0.1,2.8c-0.3,1.8-1.3,3.1-3.1,3.6c-1.1,0.3-2.2,0-3.2-0.6
			c-0.7-0.4-1.4-0.6-2.2-0.5c-0.6,0-1.1,0.1-1.6,0.4c-0.3,0.2-0.6,0.3-1,0.5c-3.1,1.3-4.9-0.7-5.6-2.7c-0.2-0.6-0.3-1.3-0.3-2
			c0-5.2,0-10.4,0-15.6c0-1.1,0.2-2.1,0.7-3.1c0.4-0.8,0.7-1.6,1-2.4c0.6-1.7,1.1-3.3,1-5.1c0-1.5-0.4-3-1.2-4.3
			c-0.9-1.3-1.5-2.8-1.9-4.3c-0.7-2.3-0.3-4.6,0.9-6.6c1-1.7,2.3-3.2,3.8-4.5c1.1-1,1.2-1.3,0.7-2.6C45.5,24.7,45.4,24.5,45.4,24.3z
			"/>
		<path class="st2" d="M49,18c1.1,0,2.2,0,3.4,0c0.7,0,0.8,0.1,0.9,0.8c0,0.9,0,1.7,0,2.6c0,0.9-0.1,1.1-1,1.1c-1,0-2,0-3.1,0
			c-1.1,0-2.2,0-3.3,0c-0.8,0-1-0.2-1-1c0-0.8,0-1.7,0-2.5c0-0.9,0.1-1,1.1-1C46.9,18,47.9,18,49,18C49,18,49,18,49,18z"/>
	</g>
	<g>
		<path class="st2" d="M63.2,32.2c0.8-0.2,5.4-0.2,6.1,0c0,0.1-0.1,0.3-0.1,0.4c-0.5,1.1-0.4,1.4,0.5,2.2c1.1,0.9,2,1.9,2.7,3.1
			c1.3,1.9,1.8,4,1.1,6.3c-0.4,1.1-0.7,2.1-1.3,3.1C71,49.1,70.9,51,71.4,53c0.3,1.1,0.7,2.2,1.1,3.3c0.5,1.1,0.8,2.3,0.8,3.5
			c0,3.7,0,7.4,0,11.1c0,0.7,0,1.5-0.1,2.2c-0.3,1.4-1,2.5-2.5,2.9c-0.9,0.2-1.8,0-2.6-0.5c-0.6-0.3-1.1-0.5-1.8-0.4
			c-0.5,0-0.9,0.1-1.3,0.3c-0.2,0.1-0.5,0.3-0.8,0.4c-2.5,1-4-0.5-4.6-2.2c-0.2-0.5-0.2-1.1-0.2-1.6c0-4.2,0-8.5,0-12.7
			c0-0.9,0.2-1.7,0.5-2.5c0.3-0.6,0.6-1.3,0.8-1.9c0.5-1.3,0.9-2.7,0.8-4.2c0-1.2-0.3-2.4-1-3.5c-0.7-1.1-1.2-2.2-1.5-3.5
			c-0.5-1.9-0.2-3.7,0.7-5.4c0.8-1.4,1.9-2.6,3.1-3.7c0.9-0.8,1-1,0.5-2.1C63.3,32.6,63.3,32.4,63.2,32.2z"/>
		<path class="st2" d="M66.1,27.1c0.9,0,1.8,0,2.7,0c0.6,0,0.7,0.1,0.7,0.7c0,0.7,0,1.4,0,2.1c0,0.8-0.1,0.9-0.8,0.9
			c-0.8,0-1.7,0-2.5,0c-0.9,0-1.8,0-2.6,0c-0.7,0-0.8-0.1-0.8-0.8c0-0.7,0-1.3,0-2c0-0.7,0.1-0.8,0.9-0.8
			C64.5,27.1,65.3,27.1,66.1,27.1C66.1,27.1,66.1,27.1,66.1,27.1z"/>
	</g>
	<g>
		<path class="st2" d="M28.8,32.2c0.8-0.2,5.4-0.2,6.1,0c0,0.1-0.1,0.3-0.1,0.4c-0.5,1.1-0.4,1.4,0.5,2.2c1.1,0.9,2,1.9,2.7,3.1
			c1.3,1.9,1.8,4,1.1,6.3c-0.4,1.1-0.7,2.1-1.3,3.1C36.6,49.1,36.5,51,37,53c0.3,1.1,0.7,2.2,1.1,3.3c0.5,1.1,0.8,2.3,0.8,3.5
			c0,3.7,0,7.4,0,11.1c0,0.7,0,1.5-0.1,2.2c-0.3,1.4-1,2.5-2.5,2.9c-0.9,0.2-1.8,0-2.6-0.5c-0.6-0.3-1.1-0.5-1.8-0.4
			c-0.5,0-0.9,0.1-1.3,0.3c-0.2,0.1-0.5,0.3-0.8,0.4c-2.5,1-4-0.5-4.6-2.2C25,73.2,25,72.6,25,72.1c0-4.2,0-8.5,0-12.7
			c0-0.9,0.2-1.7,0.5-2.5c0.3-0.6,0.6-1.3,0.8-1.9c0.5-1.3,0.9-2.7,0.8-4.2c0-1.2-0.3-2.4-1-3.5c-0.7-1.1-1.2-2.2-1.5-3.5
			c-0.5-1.9-0.2-3.7,0.7-5.4c0.8-1.4,1.9-2.6,3.1-3.7c0.9-0.8,1-1,0.5-2.1C28.9,32.6,28.9,32.4,28.8,32.2z"/>
		<path class="st2" d="M31.8,27.1c0.9,0,1.8,0,2.7,0c0.6,0,0.7,0.1,0.7,0.7c0,0.7,0,1.4,0,2.1c0,0.8-0.1,0.9-0.8,0.9
			c-0.8,0-1.7,0-2.5,0c-0.9,0-1.8,0-2.6,0c-0.7,0-0.8-0.1-0.8-0.8c0-0.7,0-1.3,0-2c0-0.7,0.1-0.8,0.9-0.8
			C30.1,27.1,30.9,27.1,31.8,27.1C31.8,27.1,31.8,27.1,31.8,27.1z"/>
	</g>
</g>
</svg>
