<?xml version="1.0" encoding="utf-8"?>
<!-- Generator: Adobe Illustrator 19.1.0, SVG Export Plug-In . SVG Version: 6.00 Build 0)  -->
<svg version="1.1" id="Layer_1" xmlns="http://www.w3.org/2000/svg" xmlns:xlink="http://www.w3.org/1999/xlink" x="0px" y="0px"
	 viewBox="0 0 96 96" style="enable-background:new 0 0 96 96;" xml:space="preserve">
<style type="text/css">
	.st0{fill:#9E1D20;}
	.st1{opacity:0.6;}
	.st2{fill:#FFFFFF;}
</style>
<g>
	<circle class="st0" cx="48" cy="48" r="48"/>
	<g>
		<g class="st1">
			<g>
				<g>
					<polygon points="43.1,38.2 40.5,41.5 45.7,45.5 45.7,51 50.2,51 50.2,45.6 55.8,41.5 53.1,38.4 48.1,41.9 					"/>
					<path d="M30.9,44.7c-7.5,0-13.5-6.1-13.5-13.5s6.1-13.5,13.5-13.5c7.5,0,13.5,6.1,13.5,13.5S38.4,44.7,30.9,44.7z M30.9,19.3
						c-6.5,0-11.8,5.3-11.8,11.8c0,6.5,5.3,11.8,11.8,11.8c6.5,0,11.8-5.3,11.8-11.8C42.7,24.6,37.4,19.3,30.9,19.3z"/>
					<path d="M48.1,78.6c-7.5,0-13.5-6.1-13.5-13.5s6.1-13.5,13.5-13.5c7.5,0,13.5,6.1,13.5,13.5S55.6,78.6,48.1,78.6z M48.1,53.3
						c-6.5,0-11.8,5.3-11.8,11.8s5.3,11.8,11.8,11.8s11.8-5.3,11.8-11.8S54.6,53.3,48.1,53.3z"/>
					<g>
						<g>
							<path d="M65.5,17.6C58,17.6,52,23.7,52,31.1S58,44.7,65.5,44.7S79,38.6,79,31.1S73,17.6,65.5,17.6z M65.5,42.9
								c-6.5,0-11.8-5.3-11.8-11.8c0-6.5,5.3-11.8,11.8-11.8c6.5,0,11.8,5.3,11.8,11.8C77.3,37.6,72,42.9,65.5,42.9z"/>
						</g>
					</g>
				</g>
				<g>
					<path d="M48.8,64.5c2.2-0.2,4-2,4.4-4.1c0.4-1.7-0.2-3.5-1.4-4.7c-1.1-1.1-2.7-1.7-4.2-1.5c-2,0.2-3.8,1.6-4.4,3.5
						c-0.6,1.8-0.2,3.9,1.1,5.2C45.4,64.1,47.2,64.8,48.8,64.5z"/>
					<path d="M42.3,74.6c0.6,0.4,1.3,0.7,2,0.9c1.2,0.4,2.4,0.6,3.7,0.6c1.3,0,2.6-0.2,3.8-0.6c0.7-0.2,1.4-0.5,2-0.9
						c1.1-0.6,2.1-1.4,2.9-2.3c0-1.4,0-2.8,0-4.2c-1.9-0.3-3.8-0.8-5.7-1.1c-1,1.5-5.1,1.6-6.1,0c-1.9,0.4-3.8,0.8-5.7,1.1
						c0,1.4,0,2.8,0,4.2C40.3,73.2,41.2,74,42.3,74.6z"/>
				</g>
				<g>
					<path d="M66.2,30.4c2.2-0.2,4-2,4.4-4.1c0.4-1.7-0.2-3.5-1.4-4.7c-1.1-1.1-2.7-1.7-4.2-1.5c-2,0.2-3.8,1.6-4.4,3.5
						c-0.6,1.8-0.2,3.9,1.1,5.2C62.7,30,64.5,30.6,66.2,30.4z"/>
					<path d="M59.7,40.4c0.6,0.4,1.3,0.7,2,0.9c1.2,0.4,2.4,0.6,3.7,0.6c1.3,0,2.6-0.2,3.8-0.6c0.7-0.2,1.4-0.5,2-0.9
						c1.1-0.6,2.1-1.4,2.9-2.3c0-1.4,0-2.8,0-4.2c-1.9-0.3-3.8-0.8-5.7-1.1c-1,1.5-5.1,1.6-6.1,0c-1.9,0.4-3.8,0.8-5.7,1.1
						c0,1.4,0,2.8,0,4.2C57.6,39,58.6,39.8,59.7,40.4z"/>
				</g>
				<g>
					<path d="M31.6,30.3c2.2-0.2,4-2,4.4-4.1c0.4-1.7-0.2-3.5-1.4-4.7c-1.1-1.1-2.7-1.7-4.2-1.5c-2,0.2-3.8,1.6-4.4,3.5
						c-0.6,1.8-0.2,3.9,1.1,5.2C28.1,29.9,29.9,30.6,31.6,30.3z"/>
					<path d="M25.1,40.4c0.6,0.4,1.3,0.7,2,0.9c1.2,0.4,2.4,0.6,3.7,0.6c1.3,0,2.6-0.2,3.8-0.6c0.7-0.2,1.4-0.5,2-0.9
						c1.1-0.6,2.1-1.4,2.9-2.3c0-1.4,0-2.8,0-4.2c-1.9-0.3-3.8-0.8-5.7-1.1c-1,1.5-5.1,1.6-6.1,0c-1.9,0.4-3.8,0.8-5.7,1.1
						c0,1.4,0,2.8,0,4.2C23,39,24,39.8,25.1,40.4z"/>
				</g>
			</g>
		</g>
		<g>
			<g>
				<g>
					<polygon class="st2" points="42.6,37.9 40,41.2 45.2,45.1 45.2,50.6 49.7,50.6 49.7,45.2 55.3,41.2 52.6,38.1 47.6,41.6 					
						"/>
					<path class="st2" d="M30.4,44.3c-7.4,0-13.5-6-13.5-13.5s6-13.5,13.5-13.5c7.4,0,13.5,6,13.5,13.5S37.9,44.3,30.4,44.3z
						 M30.4,19.1c-6.5,0-11.7,5.3-11.7,11.8c0,6.5,5.3,11.7,11.7,11.7c6.5,0,11.7-5.3,11.7-11.7C42.2,24.4,36.9,19.1,30.4,19.1z"/>
					<path class="st2" d="M47.6,78.1c-7.4,0-13.5-6-13.5-13.5s6-13.5,13.5-13.5s13.5,6,13.5,13.5S55.1,78.1,47.6,78.1z M47.6,52.9
						c-6.5,0-11.7,5.3-11.7,11.7c0,6.5,5.3,11.8,11.7,11.8s11.7-5.3,11.7-11.8C59.4,58.2,54.1,52.9,47.6,52.9z"/>
					<g>
						<g>
							<path class="st2" d="M64.9,17.4c-7.4,0-13.5,6-13.5,13.5s6,13.5,13.5,13.5s13.5-6,13.5-13.5S72.3,17.4,64.9,17.4z M64.9,42.6
								c-6.5,0-11.7-5.3-11.7-11.7c0-6.5,5.3-11.8,11.7-11.8c6.5,0,11.7,5.3,11.7,11.8C76.6,37.3,71.4,42.6,64.9,42.6z"/>
						</g>
					</g>
				</g>
				<g>
					<path class="st2" d="M48.3,64.1c2.1-0.2,4-2,4.4-4.1c0.4-1.7-0.2-3.5-1.4-4.7c-1.1-1.1-2.7-1.7-4.2-1.5c-2,0.2-3.8,1.6-4.4,3.5
						c-0.6,1.7-0.2,3.8,1.1,5.2C44.9,63.7,46.6,64.4,48.3,64.1z"/>
					<path class="st2" d="M41.9,74.1c0.6,0.4,1.3,0.7,2,0.9c1.2,0.4,2.4,0.6,3.7,0.6c1.3,0,2.6-0.2,3.7-0.6c0.7-0.2,1.4-0.5,2-0.9
						c1.1-0.6,2.1-1.4,2.9-2.3c0-1.4,0-2.8,0-4.2c-1.9-0.3-3.7-0.8-5.6-1.1c-1,1.5-5.1,1.6-6.1,0c-1.9,0.4-3.8,0.7-5.7,1.1
						c0,1.4,0,2.8,0,4.2C39.8,72.7,40.8,73.5,41.9,74.1z"/>
				</g>
				<g>
					<path class="st2" d="M65.6,30.1c2.1-0.2,4-2,4.4-4.1c0.4-1.7-0.2-3.5-1.4-4.7c-1.1-1.1-2.7-1.7-4.2-1.5c-2,0.2-3.8,1.6-4.4,3.5
						c-0.6,1.8-0.2,3.8,1.1,5.2C62.1,29.7,63.9,30.3,65.6,30.1z"/>
					<path class="st2" d="M59.1,40.1c0.6,0.4,1.3,0.7,2,0.9c1.2,0.4,2.4,0.6,3.7,0.6c1.3,0,2.6-0.2,3.7-0.6c0.7-0.2,1.4-0.5,2-0.9
						c1.1-0.6,2.1-1.4,2.9-2.3c0-1.4,0-2.8,0-4.2c-1.9-0.3-3.7-0.8-5.6-1.1c-1,1.5-5.1,1.6-6.1,0c-1.9,0.4-3.8,0.7-5.7,1.1
						c0,1.4,0,2.8,0,4.2C57,38.7,58,39.5,59.1,40.1z"/>
				</g>
				<g>
					<path class="st2" d="M31.1,30c2.1-0.2,4-2,4.4-4.1c0.4-1.7-0.2-3.5-1.4-4.7c-1.1-1.1-2.7-1.7-4.2-1.5c-2,0.2-3.8,1.6-4.4,3.5
						c-0.6,1.8-0.2,3.8,1.1,5.2C27.7,29.6,29.5,30.3,31.1,30z"/>
					<path class="st2" d="M24.7,40c0.6,0.4,1.3,0.7,2,0.9c1.2,0.4,2.4,0.6,3.7,0.6c1.3,0,2.6-0.2,3.7-0.6c0.7-0.2,1.4-0.5,2-0.9
						c1.1-0.6,2.1-1.4,2.9-2.3c0-1.4,0-2.8,0-4.2c-1.9-0.3-3.7-0.8-5.6-1.1c-1,1.5-5.1,1.6-6.1,0c-1.9,0.4-3.8,0.7-5.7,1.1
						c0,1.4,0,2.8,0,4.2C22.6,38.6,23.6,39.4,24.7,40z"/>
				</g>
			</g>
		</g>
	</g>
</g>
</svg>
