<?xml version="1.0" encoding="utf-8"?>
<!-- Generator: Adobe Illustrator 19.1.0, SVG Export Plug-In . SVG Version: 6.00 Build 0)  -->
<svg version="1.1" id="Layer_1" xmlns="http://www.w3.org/2000/svg" xmlns:xlink="http://www.w3.org/1999/xlink" x="0px" y="0px"
	 viewBox="0 0 96 96" style="enable-background:new 0 0 96 96;" xml:space="preserve">
<style type="text/css">
	.st0{fill:#9E1D20;}
	.st1{opacity:0.6;}
	.st2{fill:#FFFFFF;}
</style>
<g>
	<g>
		<circle class="st0" cx="48" cy="48" r="48"/>
	</g>
	<g class="st1">
		<g>
			<path d="M40.1,72.1c-0.6,0-0.9-0.2-1-0.8c-0.2-1.1-0.4-2.2-0.6-3.3c-0.8-4.1-1.5-8.2-2.3-12.4c-0.2-1.2-0.5-2.4-0.7-3.6
				c0-0.1,0-0.2-0.1-0.3c-0.1-0.6,0.2-0.9,0.7-1c0.9-0.2,1.9-0.4,2.8-0.5c2.9-0.6,5.9-1.1,8.8-1.7c3.4-0.6,6.7-1.2,10.1-1.9
				c5.7-1.1,11.3-2.1,17-3.2c0.2,0,0.5-0.1,0.7-0.1c0.5-0.1,0.9,0.1,1,0.7c0.2,1,0.4,2.1,0.6,3.1c0.7,3.5,1.3,7.1,2,10.6
				c0.4,1.9,0.7,3.9,1.1,5.8c0.1,0.7-0.1,1-0.8,1.1c-2.7,0.5-5.4,1-8.1,1.5c-3.3,0.6-6.7,1.3-10,1.9c-4.1,0.8-8.2,1.5-12.3,2.3
				c-2.8,0.5-5.5,1-8.3,1.6C40.5,72.1,40.3,72.1,40.1,72.1z M60.1,65.1c0.2-0.1,0.4-0.2,0.6-0.3c1-0.5,1.8-1.1,2.3-2.2
				c0.5-1.2,0.4-2.5-0.1-3.6c-0.3-0.6-0.8-1.1-1.4-1.5c-0.6-0.3-1.2-0.5-1.9-0.6c-0.7-0.1-1.5-0.2-2.2-0.3c-0.8-0.1-1.4-0.5-1.8-1.2
				c-0.5-1-0.2-2.2,0.8-2.7c1-0.5,2.1-0.2,2.6,0.8c0.1,0.2,0.2,0.4,0.3,0.6c0.3,0.6,0.9,0.9,1.6,0.6c0.6-0.2,1-0.9,0.8-1.5
				c-0.1-0.3-0.2-0.6-0.4-0.8c-0.7-1.1-1.7-1.7-3-1.9c-0.3-0.1-0.6-0.1-0.9-0.1c-0.1-0.2-0.1-0.4-0.1-0.5c-0.2-0.4-0.6-0.7-1-0.6
				c-0.4,0.1-0.7,0.4-0.7,0.9c0,0.2,0,0.4,0,0.5c-0.1,0.1-0.2,0.1-0.3,0.2c-2.2,1.1-3.2,3.4-2.2,5.7c0.2,0.5,0.5,1,1,1.3
				c0.6,0.4,1.3,0.9,2.1,1c0.8,0.2,1.6,0.3,2.3,0.4c0.4,0,0.8,0.2,1.2,0.3c1.2,0.4,1.3,2.1,0.5,2.9c-1,1-3.1,0.9-3.8-0.3
				c-0.1-0.2-0.2-0.3-0.3-0.5c-0.2-0.6-0.7-0.7-1.3-0.7c-0.6,0-0.9,0.4-1.1,0.9c-0.1,0.4-0.1,0.7,0.1,1.1c0.6,1.2,1.5,2,2.8,2.2
				c0.5,0.1,1.1,0.1,1.6,0.2c0.3,0.9,0.6,1.2,1.1,1.1C59.9,66.4,60.1,66.1,60.1,65.1z M38.5,59.6c2.3-0.5,3.9-1.7,5.1-3.6
				c1.1-1.8,1.3-4.3,0.8-5.2c-0.2,0-0.4,0.1-0.6,0.1c-0.6,0.1-1.2,0.2-1.8,0.3c-1.5,0.3-2.9,0.5-4.4,0.8c-0.5,0.1-0.5,0.1-0.4,0.6
				c0,0.1,0,0.1,0,0.2c0.4,1.9,0.7,3.8,1.1,5.7C38.3,58.9,38.4,59.2,38.5,59.6z M47.9,69.1c-0.1-0.3-0.1-0.4-0.1-0.6
				c-0.9-2.9-2.8-4.7-5.7-5.4c-0.8-0.2-1.6-0.2-2.4-0.1c-0.5,0.1-0.5,0.1-0.4,0.6c0,0,0,0.1,0,0.1c0.3,1.8,0.7,3.7,1,5.5
				c0.1,0.4,0.2,0.8,0.3,1.3C43,70,45.4,69.5,47.9,69.1z M71.2,64.6c0.5,0.1,6.9-1.2,7.3-1.4c-0.4-2.4-0.9-4.8-1.3-7.2
				C73.4,56.4,70.2,60.8,71.2,64.6z M67.8,46.4c0.6,4.1,4.9,6.9,8.6,6c0-0.6-1.2-6.9-1.4-7.3C72.6,45.5,70.2,46,67.8,46.4z"/>
			<path d="M53.8,74.3c-0.2-1.2-0.7-2.1-1.2-3c0.3-0.2,3.6-0.8,6.1-1.3c2-0.3,4.1-0.8,6.1-1.2c2.1-0.4,4.1-0.8,6.2-1.2
				c2-0.4,4.1-0.8,6.2-1.2c-0.2,1.2-0.3,2.2,0,3.4c1.2-0.2,2.5-0.4,3.7-0.7c1.2-0.2,2.4-0.5,3.7-0.7c-0.5-2.5-0.9-4.9-1.4-7.3
				c-0.7-0.1-1.2,0.3-1.8,0.4c-0.2-1.3-0.5-2.5-0.7-3.9c0.6-0.1,1.2-0.1,1.8-0.1c0-0.2,0-0.4,0-0.6c-0.4-2.1-0.8-4.3-1.2-6.4
				c0-0.1-0.1-0.2-0.1-0.4c-0.6,0.1-1.2,0.2-1.8,0.3c-0.1-0.5-0.2-1-0.3-1.5c0.4-0.1,0.6-0.1,0.9-0.2c0.5-0.1,1-0.2,1.5-0.3
				c0.8-0.1,1.1,0.1,1.2,0.8c0.2,1.2,0.5,2.5,0.7,3.7c0.8,4.3,1.6,8.6,2.4,12.8c0.2,0.9,0.3,1.8,0.5,2.8c0.1,0.7-0.1,1-0.8,1.2
				c-3.2,0.6-6.3,1.2-9.5,1.8c-2.5,0.5-5,0.9-7.5,1.4c-2.5,0.5-5,0.9-7.5,1.4c-3.7,0.7-7.3,1.4-11,2.1c-1.2,0.2-2.5,0.5-3.7,0.7
				c-0.6,0.1-1-0.1-1.1-0.6c-0.3-1.2-0.5-2.5-0.7-3.7c0-0.1,0-0.1,0-0.3c0.5-0.1,0.9-0.2,1.4-0.3c0.2,1.1,0.4,2.1,0.6,3.2
				C48.9,75.3,51.3,74.8,53.8,74.3z"/>
		</g>
		<path d="M17,36c0,0.4,0.3,0.7,0.7,0.8c0.2,0,0.3,0,0.5,0c5,0,10,0,14.9,0c3.2,0,6.5,0,9.7,0c3.4,0,6.7,0,10.1,0
			c4.9,0,9.8,0,14.6,0c0.1,0,0.2,0,0.3,0c0.5,0,0.8-0.3,0.8-0.9c0-0.8,0-1.7,0-2.5c0-0.6-0.3-1.1-0.8-1.4c-1.4-0.8-2.7-1.6-4.1-2.4
			c-2.1-1.2-4.2-2.5-6.3-3.7c-1.7-1-3.4-2-5.1-3c-1.6-0.9-3.2-1.9-4.8-2.8c-1.4-0.8-2.7-1.6-4.1-2.4c-0.5-0.3-1-0.3-1.4,0
			c-1.7,1-3.4,2-5.1,3c-2.2,1.3-4.5,2.6-6.7,4c-2.2,1.3-4.5,2.7-6.7,4c-2,1.2-3.9,2.3-5.9,3.5c-0.5,0.3-0.8,0.8-0.8,1.4
			c0,0.8,0,1.6,0,2.5C17,35.9,17,36,17,36z M42.8,25.5c2,0,3.7,1.6,3.7,3.6c0,2-1.5,3.6-3.6,3.7c-2,0-3.6-1.5-3.6-3.6
			C39.2,27,40.9,25.5,42.8,25.5z"/>
		<path d="M36,62.7c-6,0-11.9,0-17.9,0c-0.1,0-0.3,0-0.4,0c-0.4,0-0.7,0.3-0.7,0.7c0,0.1,0,0.1,0,0.2c0,1.5,0,3,0,4.6
			c0,0,0,0.1,0,0.1c0,0.4,0.3,0.7,0.7,0.8c0.2,0,0.3,0,0.5,0c6.3,0,12.7,0,19,0c-0.1-0.7-0.2-1.3-0.4-2C36.5,65.7,36.3,64.2,36,62.7
			z"/>
		<path d="M63.1,41c0-0.7-0.3-1-1-1c-1.2,0-2.4,0-3.7,0c-0.3,0-0.7,0-1,0c-0.5,0-0.8,0.3-0.8,0.8c0,0.1,0,0.2,0,0.4c0,1.5,0,3,0,4.4
			c2.2-0.4,4.3-0.8,6.5-1.2C63.1,43.3,63.1,42.2,63.1,41z"/>
		<path d="M51.7,46.6c0-1.9,0-3.7,0-5.6c0-0.7-0.3-1-1-1c-1.5,0-2.9,0-4.4,0c-0.1,0-0.2,0-0.4,0c-0.4,0-0.7,0.3-0.7,0.8
			c0,0.2,0,0.3,0,0.5c0,2.2,0,4.3,0,6.5c0.3-0.1,0.6-0.1,0.9-0.2C48,47.3,49.9,46.9,51.7,46.6z"/>
		<path d="M37.3,49.3c1-0.2,2.1-0.4,3.1-0.6c0-2.5,0-5,0-7.5c0-0.1,0-0.2,0-0.3c-0.1-0.6-0.4-0.8-0.9-0.8c-0.1,0-0.1,0-0.2,0
			c-1.4,0-2.9,0-4.3,0c-0.7,0-1.1,0.2-1.1,1.1c0,2.9,0,5.7,0,8.6c0,0,0,0,0,0c0,0.1,0,0.2,0,0.3c0.1-0.1,0.3-0.2,0.5-0.2
			C35.4,49.6,36.4,49.5,37.3,49.3z"/>
		<path d="M34,52c0,1,0,2.1,0,3.1c0,1.2,0,2.3,0,3.5c0,0.5,0.3,0.7,0.8,0.8c0.1,0,0.2,0,0.4,0c0.1,0,0.2,0,0.3,0
			c-0.3-1.5-0.6-3.1-0.9-4.6C34.3,53.9,34.2,53,34,52z"/>
		<path d="M22.6,58.6c0,0.6,0.3,0.9,0.9,0.9c1.6,0,3.1,0,4.7,0c0.6,0,0.9-0.3,0.9-0.9c0-0.1,0-0.2,0-0.3c0-2.8,0-5.7,0-8.5
			c0-2.9,0-5.8,0-8.7c0-0.2,0-0.3-0.1-0.5c-0.1-0.4-0.3-0.6-0.7-0.6c-0.1,0-0.1,0-0.2,0c-1.5,0-2.9,0-4.4,0c-0.8,0-1.1,0.3-1.1,1.1
			c0,1.6,0,3.2,0,4.8c0,4,0,8.1,0,12.1C22.6,58.2,22.6,58.4,22.6,58.6z"/>
	</g>
	<g>
		<g>
			<path class="st2" d="M39.6,71.5c-0.6,0-0.9-0.2-1-0.8c-0.2-1.1-0.4-2.2-0.6-3.3c-0.8-4.1-1.5-8.2-2.3-12.4
				c-0.2-1.2-0.5-2.4-0.7-3.6c0-0.1,0-0.2-0.1-0.3c-0.1-0.6,0.2-0.9,0.7-1c0.9-0.2,1.9-0.4,2.8-0.5c2.9-0.6,5.9-1.1,8.8-1.7
				c3.4-0.6,6.7-1.2,10.1-1.9c5.7-1.1,11.3-2.1,17-3.2c0.2,0,0.5-0.1,0.7-0.1c0.5-0.1,0.9,0.1,1,0.7c0.2,1,0.4,2.1,0.6,3.1
				c0.7,3.5,1.3,7.1,2,10.6c0.4,1.9,0.7,3.9,1.1,5.8c0.1,0.7-0.1,1-0.8,1.1c-2.7,0.5-5.4,1-8.1,1.5c-3.3,0.6-6.7,1.3-10,1.9
				c-4.1,0.8-8.2,1.5-12.3,2.3c-2.8,0.5-5.5,1-8.3,1.6C40,71.4,39.8,71.5,39.6,71.5z M59.7,64.5c0.2-0.1,0.4-0.2,0.6-0.3
				c1-0.5,1.8-1.1,2.3-2.2c0.5-1.2,0.4-2.5-0.1-3.6c-0.3-0.6-0.8-1.1-1.4-1.5c-0.6-0.3-1.2-0.5-1.9-0.6c-0.7-0.1-1.5-0.2-2.2-0.3
				c-0.8-0.1-1.4-0.5-1.8-1.2c-0.5-1-0.2-2.2,0.8-2.7c1-0.5,2.1-0.2,2.6,0.8c0.1,0.2,0.2,0.4,0.3,0.6c0.3,0.6,0.9,0.9,1.6,0.6
				c0.6-0.2,1-0.9,0.8-1.5c-0.1-0.3-0.2-0.6-0.4-0.8c-0.7-1.1-1.7-1.7-3-1.9c-0.3-0.1-0.6-0.1-0.9-0.1c-0.1-0.2-0.1-0.4-0.1-0.5
				c-0.2-0.4-0.6-0.7-1-0.6c-0.4,0.1-0.7,0.4-0.7,0.9c0,0.2,0,0.4,0,0.5c-0.1,0.1-0.2,0.1-0.3,0.2c-2.2,1.1-3.2,3.4-2.2,5.7
				c0.2,0.5,0.5,1,1,1.3c0.6,0.4,1.3,0.9,2.1,1c0.8,0.2,1.6,0.3,2.3,0.4c0.4,0,0.8,0.2,1.2,0.3c1.2,0.4,1.3,2.1,0.5,2.9
				c-1,1-3.1,0.9-3.8-0.3c-0.1-0.2-0.2-0.3-0.3-0.5c-0.2-0.6-0.7-0.7-1.3-0.7c-0.6,0-0.9,0.4-1.1,0.9c-0.1,0.4-0.1,0.7,0.1,1.1
				c0.6,1.2,1.5,2,2.8,2.2c0.5,0.1,1.1,0.1,1.6,0.2c0.3,0.9,0.6,1.2,1.1,1.1C59.5,65.8,59.6,65.5,59.7,64.5z M38,58.9
				c2.3-0.5,3.9-1.7,5.1-3.6c1.1-1.8,1.3-4.3,0.8-5.2c-0.2,0-0.4,0.1-0.6,0.1c-0.6,0.1-1.2,0.2-1.8,0.3c-1.5,0.3-2.9,0.5-4.4,0.8
				c-0.5,0.1-0.5,0.1-0.4,0.6c0,0.1,0,0.1,0,0.2c0.4,1.9,0.7,3.8,1.1,5.7C37.8,58.3,37.9,58.6,38,58.9z M47.4,68.4
				c-0.1-0.3-0.1-0.4-0.1-0.6c-0.9-2.9-2.8-4.7-5.7-5.4c-0.8-0.2-1.6-0.2-2.4-0.1c-0.5,0.1-0.5,0.1-0.4,0.6c0,0,0,0.1,0,0.1
				c0.3,1.8,0.7,3.7,1,5.5c0.1,0.4,0.2,0.8,0.3,1.3C42.5,69.3,44.9,68.9,47.4,68.4z M70.7,63.9c0.5,0.1,6.9-1.2,7.3-1.4
				c-0.4-2.4-0.9-4.8-1.3-7.2C72.9,55.7,69.7,60.2,70.7,63.9z M67.3,45.8c0.6,4.1,4.9,6.9,8.6,6c0-0.6-1.2-6.9-1.4-7.3
				C72.1,44.9,69.8,45.3,67.3,45.8z"/>
			<path class="st2" d="M53.3,73.7c-0.2-1.2-0.7-2.1-1.2-3c0.3-0.2,3.6-0.8,6.1-1.3c2-0.3,4.1-0.8,6.1-1.2c2.1-0.4,4.1-0.8,6.2-1.2
				c2-0.4,4.1-0.8,6.2-1.2c-0.2,1.2-0.3,2.2,0,3.4c1.2-0.2,2.5-0.4,3.7-0.7c1.2-0.2,2.4-0.5,3.7-0.7c-0.5-2.5-0.9-4.9-1.4-7.3
				c-0.7-0.1-1.2,0.3-1.8,0.4c-0.2-1.3-0.5-2.5-0.7-3.9c0.6-0.1,1.2-0.1,1.8-0.1c0-0.2,0-0.4,0-0.6c-0.4-2.1-0.8-4.3-1.2-6.4
				c0-0.1-0.1-0.2-0.1-0.4c-0.6,0.1-1.2,0.2-1.8,0.3c-0.1-0.5-0.2-1-0.3-1.5c0.4-0.1,0.6-0.1,0.9-0.2c0.5-0.1,1-0.2,1.5-0.3
				c0.8-0.1,1.1,0.1,1.2,0.8c0.2,1.2,0.5,2.5,0.7,3.7c0.8,4.3,1.6,8.6,2.4,12.8c0.2,0.9,0.3,1.8,0.5,2.8c0.1,0.7-0.1,1-0.8,1.2
				c-3.2,0.6-6.3,1.2-9.5,1.8c-2.5,0.5-5,0.9-7.5,1.4c-2.5,0.5-5,0.9-7.5,1.4c-3.7,0.7-7.3,1.4-11,2.1c-1.2,0.2-2.5,0.5-3.7,0.7
				c-0.6,0.1-1-0.1-1.1-0.6c-0.3-1.2-0.5-2.5-0.7-3.7c0-0.1,0-0.1,0-0.3c0.5-0.1,0.9-0.2,1.4-0.3c0.2,1.1,0.4,2.1,0.6,3.2
				C48.4,74.6,50.8,74.2,53.3,73.7z"/>
		</g>
		<path class="st2" d="M16.5,35.4c0,0.4,0.3,0.7,0.7,0.8c0.2,0,0.3,0,0.5,0c5,0,10,0,14.9,0c3.2,0,6.5,0,9.7,0c3.4,0,6.7,0,10.1,0
			c4.9,0,9.8,0,14.6,0c0.1,0,0.2,0,0.3,0c0.5,0,0.8-0.3,0.8-0.9c0-0.8,0-1.7,0-2.5c0-0.6-0.3-1.1-0.8-1.4c-1.4-0.8-2.7-1.6-4.1-2.4
			c-2.1-1.2-4.2-2.5-6.3-3.7c-1.7-1-3.4-2-5.1-3c-1.6-0.9-3.2-1.9-4.8-2.8c-1.4-0.8-2.7-1.6-4.1-2.4c-0.5-0.3-1-0.3-1.4,0
			c-1.7,1-3.4,2-5.1,3c-2.2,1.3-4.5,2.6-6.7,4c-2.2,1.3-4.5,2.7-6.7,4c-2,1.2-3.9,2.3-5.9,3.5c-0.5,0.3-0.8,0.8-0.8,1.4
			c0,0.8,0,1.6,0,2.5C16.5,35.3,16.5,35.4,16.5,35.4z M42.3,24.9c2,0,3.7,1.6,3.7,3.6c0,2-1.5,3.6-3.6,3.7c-2,0-3.6-1.5-3.6-3.6
			C38.7,26.4,40.4,24.9,42.3,24.9z"/>
		<path class="st2" d="M35.5,62c-6,0-11.9,0-17.9,0c-0.1,0-0.3,0-0.4,0c-0.4,0-0.7,0.3-0.7,0.7c0,0.1,0,0.1,0,0.2c0,1.5,0,3,0,4.6
			c0,0,0,0.1,0,0.1c0,0.4,0.3,0.7,0.7,0.8c0.2,0,0.3,0,0.5,0c6.3,0,12.7,0,19,0c-0.1-0.7-0.2-1.3-0.4-2C36.1,65,35.8,63.5,35.5,62z"
			/>
		<path class="st2" d="M62.6,40.4c0-0.7-0.3-1-1-1c-1.2,0-2.4,0-3.7,0c-0.3,0-0.7,0-1,0c-0.5,0-0.8,0.3-0.8,0.8c0,0.1,0,0.2,0,0.4
			c0,1.5,0,3,0,4.4c2.2-0.4,4.3-0.8,6.5-1.2C62.6,42.7,62.6,41.5,62.6,40.4z"/>
		<path class="st2" d="M51.3,46c0-1.9,0-3.7,0-5.6c0-0.7-0.3-1-1-1c-1.5,0-2.9,0-4.4,0c-0.1,0-0.2,0-0.4,0c-0.4,0-0.7,0.3-0.7,0.8
			c0,0.2,0,0.3,0,0.5c0,2.2,0,4.3,0,6.5c0.3-0.1,0.6-0.1,0.9-0.2C47.5,46.6,49.4,46.3,51.3,46z"/>
		<path class="st2" d="M36.8,48.7c1-0.2,2.1-0.4,3.1-0.6c0-2.5,0-5,0-7.5c0-0.1,0-0.2,0-0.3c-0.1-0.6-0.4-0.8-0.9-0.8
			c-0.1,0-0.1,0-0.2,0c-1.4,0-2.9,0-4.3,0c-0.7,0-1.1,0.2-1.1,1.1c0,2.9,0,5.7,0,8.6c0,0,0,0,0,0c0,0.1,0,0.2,0,0.3
			c0.1-0.1,0.3-0.2,0.5-0.2C35,49,35.9,48.8,36.8,48.7z"/>
		<path class="st2" d="M33.5,51.4c0,1,0,2.1,0,3.1c0,1.2,0,2.3,0,3.5c0,0.5,0.3,0.7,0.8,0.8c0.1,0,0.2,0,0.4,0c0.1,0,0.2,0,0.3,0
			c-0.3-1.5-0.6-3.1-0.9-4.6C33.8,53.2,33.7,52.3,33.5,51.4z"/>
		<path class="st2" d="M22.2,57.9c0,0.6,0.3,0.9,0.9,0.9c1.6,0,3.1,0,4.7,0c0.6,0,0.9-0.3,0.9-0.9c0-0.1,0-0.2,0-0.3
			c0-2.8,0-5.7,0-8.5c0-2.9,0-5.8,0-8.7c0-0.2,0-0.3-0.1-0.5c-0.1-0.4-0.3-0.6-0.7-0.6c-0.1,0-0.1,0-0.2,0c-1.5,0-2.9,0-4.4,0
			c-0.8,0-1.1,0.3-1.1,1.1c0,1.6,0,3.2,0,4.8c0,4,0,8.1,0,12.1C22.2,57.6,22.2,57.8,22.2,57.9z"/>
	</g>
</g>
</svg>
