<?xml version="1.0" encoding="utf-8"?>
<!-- Generator: Adobe Illustrator 19.1.0, SVG Export Plug-In . SVG Version: 6.00 Build 0)  -->
<svg version="1.1" id="Layer_1" xmlns="http://www.w3.org/2000/svg" xmlns:xlink="http://www.w3.org/1999/xlink" x="0px" y="0px"
	 viewBox="0 0 96 96" style="enable-background:new 0 0 96 96;" xml:space="preserve">
<style type="text/css">
	.st0{fill:#9E1D20;}
	.st1{opacity:0.6;}
	.st2{fill:#FFFFFF;}
</style>
<g>
	<circle class="st0" cx="48" cy="48" r="48"/>
	<g>
		<g class="st1">
			<path d="M43.2,38c2.8-0.2,5.4-2.2,6.2-4.9c0.9-2.7,0-5.9-2.3-7.7c-1.4-1.2-3.4-1.7-5.2-1.5c-3.8,0.3-6.9,4.1-6.3,8
				C35.9,35.5,39.5,38.4,43.2,38z"/>
			<path d="M29.2,36.5c2.6-0.4,4.6-3,4.2-5.5c-0.2-2.8-2.9-5-5.7-4.6c-1.5,0.2-3,1.1-3.8,2.4c-1,1.6-1.1,3.8,0,5.4
				C24.9,35.8,27.1,36.8,29.2,36.5z"/>
			<path d="M59,36.1c1.9-0.8,3.2-2.8,3.1-4.8c0-2.9-2.8-5.4-5.7-5c-1.7,0.2-3.4,1.3-4.1,2.9c-0.8,1.7-0.6,3.9,0.6,5.4
				C54.3,36.4,56.9,37,59,36.1z"/>
			<path d="M18.8,51c1.1,1,2.4,1.8,3.5,2.8c0.1,0.5,0.1,1,0.2,1.4l4.4-1.5l3.1-1.1l0.3,0.2l10.4,8.6l0.4,0.4l0.8-0.3l8.9-3.4
				l6.6-2.5l6.1-2.3c0.9-0.8,2-1.5,2.9-2.3c0-3.6,0-7.3,0-10.9c-2.1-0.4-4.1-0.9-6.2-1.2c-1.1,1.7-2.2,3.4-3.3,5.1
				c-1.2-1.7-2.2-3.4-3.3-5.1c-2.1,0.4-4.1,0.8-6.2,1.2c-1.7,2.5-3.3,5-4.9,7.5c-1.6-2.5-3.2-5-4.8-7.5c-2.1-0.4-4.1-0.8-6.2-1.2
				c-1.1,1.7-2.2,3.4-3.3,5.1c-1.1-1.7-2.2-3.4-3.3-5.1c-2.1,0.4-4.1,0.8-6.2,1.2C18.8,43.7,18.8,47.4,18.8,51z"/>
			<polygon points="67.3,47.1 69.5,52.9 69.2,53 63.5,55.2 57.4,57.6 50.9,60.1 41.9,63.5 41.1,63.8 40.7,63.4 30.3,54.8 30,54.6 
				26.9,55.7 22.4,57.2 15.7,59.5 15.7,59.5 15.7,67 23.2,64.4 27.8,62.8 28.5,62.6 28.8,62.9 33.1,66.5 35.7,68.7 39.2,71.5 
				49.5,67.6 52.1,66.6 58.4,64.3 58.8,64.2 62.2,62.8 71.5,59.4 74.2,65.1 84.3,49.9 			"/>
		</g>
		<g>
			<path class="st2" d="M43.2,37.3c2.8-0.2,5.4-2.2,6.2-4.9c0.9-2.7,0-5.9-2.3-7.7c-1.4-1.2-3.4-1.7-5.2-1.5c-3.8,0.3-6.9,4.1-6.3,8
				C35.9,34.8,39.5,37.7,43.2,37.3z"/>
			<path class="st2" d="M29.2,35.8c2.6-0.4,4.6-3,4.2-5.5c-0.2-2.8-2.9-5-5.7-4.6c-1.5,0.2-3,1.1-3.8,2.4c-1,1.6-1.1,3.8,0,5.4
				C24.9,35.2,27.1,36.2,29.2,35.8z"/>
			<path class="st2" d="M59,35.4c1.9-0.8,3.2-2.8,3.1-4.8c0-2.9-2.8-5.4-5.7-5c-1.7,0.2-3.4,1.3-4.1,2.9c-0.8,1.7-0.6,3.9,0.6,5.4
				C54.3,35.7,56.9,36.4,59,35.4z"/>
			<path class="st2" d="M18.8,50.4c1.1,1,2.4,1.8,3.5,2.8c0.1,0.5,0.1,1,0.2,1.4l4.4-1.5L30,52l0.3,0.2l10.4,8.6l0.4,0.4l0.8-0.3
				l8.9-3.4l6.6-2.5l6.1-2.3c0.9-0.8,2-1.5,2.9-2.3c0-3.6,0-7.3,0-10.9c-2.1-0.4-4.1-0.9-6.2-1.2c-1.1,1.7-2.2,3.4-3.3,5.1
				c-1.2-1.7-2.2-3.4-3.3-5.1c-2.1,0.4-4.1,0.8-6.2,1.2c-1.7,2.5-3.3,5-4.9,7.5c-1.6-2.5-3.2-5-4.8-7.5c-2.1-0.4-4.1-0.8-6.2-1.2
				c-1.1,1.7-2.2,3.4-3.3,5.1c-1.1-1.7-2.2-3.4-3.3-5.1c-2.1,0.4-4.1,0.8-6.2,1.2C18.8,43.1,18.8,46.7,18.8,50.4z"/>
			<polygon class="st2" points="67.3,46.5 69.5,52.2 69.2,52.3 63.5,54.5 57.4,56.9 50.9,59.4 41.9,62.8 41.1,63.1 40.7,62.8 
				30.3,54.2 30,53.9 26.9,55 22.4,56.5 15.7,58.8 15.7,58.8 15.7,66.3 23.2,63.7 27.8,62.1 28.5,61.9 28.8,62.2 33.1,65.8 35.7,68 
				39.2,70.8 49.5,66.9 52.1,66 58.4,63.6 58.8,63.5 62.2,62.2 71.5,58.7 74.2,64.4 84.3,49.2 			"/>
		</g>
	</g>
</g>
</svg>
