<?xml version="1.0" encoding="utf-8"?>
<!-- Generator: Adobe Illustrator 19.1.0, SVG Export Plug-In . SVG Version: 6.00 Build 0)  -->
<svg version="1.1" id="Layer_1" xmlns="http://www.w3.org/2000/svg" xmlns:xlink="http://www.w3.org/1999/xlink" x="0px" y="0px"
	 viewBox="0 0 96 96" style="enable-background:new 0 0 96 96;" xml:space="preserve">
<style type="text/css">
	.st0{fill:#9E1D20;}
	.st1{opacity:0.6;}
	.st2{fill:#FFFFFF;}
</style>
<g>
	<circle class="st0" cx="48" cy="48" r="48"/>
	<g>
		<g class="st1">
			<g>
				<g>
					<g>
						<path d="M58.9,46c-4.4,0-8.5,1.6-11.6,4.2l-4.2-4.1c0.9-1.7,1.5-3.7,1.5-5.8c0-1.9-0.4-3.6-1.1-5.2l4.6-3.4
							c1.5,1.1,3.4,1.7,5.5,1.7c5.3,0,9.6-4.3,9.6-9.6c0-5.3-4.3-9.6-9.6-9.6c-5.3,0-9.6,4.3-9.6,9.6c0,1.7,0.4,3.2,1.2,4.6
							l-4.1,3.1c-2.3-2.3-5.4-3.7-8.9-3.7c-6.9,0-12.5,5.6-12.5,12.5c0,6.9,5.6,12.5,12.5,12.5c3.2,0,6.1-1.2,8.4-3.2l3.9,3.8
							c-2.2,3-3.4,6.6-3.4,10.6c0,6.5,3.4,12.2,8.6,15.4c1.1,0.7,2.2,1.2,3.5,1.6c1.9,0.7,3.9,1,6,1s4.1-0.4,6-1
							c1.4-0.5,2.6-1.1,3.8-1.9c4.9-3.2,8.2-8.8,8.2-15.1C76.9,54.1,68.8,46,58.9,46z M53.4,16.4c4.1,0,7.5,3.4,7.5,7.5
							c0,4.1-3.4,7.5-7.5,7.5c-4.1,0-7.5-3.4-7.5-7.5C45.9,19.8,49.3,16.4,53.4,16.4z M32,50.2c-5.4,0-9.8-4.4-9.8-9.8
							c0-5.4,4.4-9.8,9.8-9.8c5.4,0,9.8,4.4,9.8,9.8C41.8,45.8,37.4,50.2,32,50.2z M68.7,74.2c-2.5,2.5-6,4-9.8,4
							c-3.6,0-6.9-1.4-9.4-3.7c-2.9-2.6-4.7-6.3-4.7-10.4c0-7.8,6.3-14.1,14.1-14.1C66.7,50,73,56.3,73,64.1
							C73,68,71.3,71.6,68.7,74.2z"/>
					</g>
				</g>
			</g>
			<g>
				<path d="M59.7,63.4c2.4-0.3,4.6-2.3,5-4.7c0.4-1.9-0.2-4-1.6-5.4c-1.2-1.3-3-1.9-4.8-1.7c-2.3,0.2-4.3,1.8-5,4
					c-0.7,2-0.2,4.4,1.2,5.9C55.8,63,57.8,63.7,59.7,63.4z"/>
				<path d="M52.3,74.8c0.7,0.4,1.5,0.8,2.3,1c1.3,0.4,2.8,0.7,4.2,0.7c1.5,0,2.9-0.2,4.3-0.7c0.8-0.3,1.6-0.6,2.3-1
					c1.2-0.7,2.4-1.6,3.3-2.6c0-1.6,0-3.2,0-4.7c-2.1-0.4-4.3-0.9-6.4-1.3c-1.2,1.7-5.8,1.8-6.9,0c-2.2,0.4-4.3,0.8-6.4,1.3
					c0,1.6,0,3.1,0,4.7C50,73.2,51.1,74.1,52.3,74.8z"/>
			</g>
			<g>
				<path d="M32.5,39.9c1.6-0.2,3.1-1.5,3.4-3.1c0.3-1.3-0.1-2.7-1.1-3.6c-0.8-0.8-2-1.3-3.2-1.2c-1.5,0.1-2.9,1.2-3.4,2.7
					c-0.5,1.3-0.2,2.9,0.8,4C29.8,39.6,31.2,40.1,32.5,39.9z"/>
				<path d="M27.5,47.5c0.5,0.3,1,0.5,1.6,0.7c0.9,0.3,1.8,0.5,2.8,0.5c1,0,2-0.2,2.9-0.5c0.5-0.2,1.1-0.4,1.6-0.7
					c0.8-0.5,1.6-1.1,2.2-1.8c0-1.1,0-2.1,0-3.2c-1.4-0.3-2.9-0.6-4.3-0.9c-0.8,1.2-3.9,1.2-4.6,0c-1.4,0.3-2.9,0.6-4.3,0.9
					c0,1.1,0,2.1,0,3.2C25.9,46.4,26.7,47,27.5,47.5z"/>
			</g>
			<g>
				<path d="M53.9,23.5c1.3-0.1,2.4-1.2,2.7-2.5c0.2-1-0.1-2.1-0.9-2.9c-0.7-0.7-1.6-1-2.6-0.9c-1.2,0.1-2.3,1-2.7,2.1
					c-0.4,1.1-0.1,2.3,0.6,3.2C51.8,23.2,52.8,23.6,53.9,23.5z"/>
				<path d="M49.9,29.6c0.4,0.2,0.8,0.4,1.2,0.5c0.7,0.2,1.5,0.4,2.3,0.4c0.8,0,1.6-0.1,2.3-0.4c0.4-0.1,0.8-0.3,1.2-0.5
					c0.7-0.4,1.3-0.8,1.8-1.4c0-0.8,0-1.7,0-2.5c-1.1-0.2-2.3-0.5-3.4-0.7c-0.6,0.9-3.1,1-3.7,0c-1.2,0.2-2.3,0.5-3.4,0.7
					c0,0.8,0,1.7,0,2.5C48.7,28.7,49.3,29.2,49.9,29.6z"/>
			</g>
		</g>
		<g>
			<g>
				<g>
					<g>
						<path class="st2" d="M58.5,45.6c-4.4,0-8.5,1.6-11.6,4.2l-4.2-4.1c0.9-1.7,1.5-3.7,1.5-5.8c0-1.9-0.4-3.6-1.1-5.2l4.6-3.4
							c1.5,1.1,3.4,1.7,5.5,1.7c5.3,0,9.6-4.3,9.6-9.6c0-5.3-4.3-9.6-9.6-9.6c-5.3,0-9.6,4.3-9.6,9.6c0,1.7,0.4,3.2,1.2,4.6
							l-4.1,3.1c-2.3-2.3-5.4-3.7-8.9-3.7c-6.9,0-12.5,5.6-12.5,12.5c0,6.9,5.6,12.5,12.5,12.5c3.2,0,6.1-1.2,8.4-3.2l3.9,3.8
							c-2.2,3-3.4,6.6-3.4,10.6c0,6.5,3.4,12.2,8.6,15.4c1.1,0.7,2.2,1.2,3.5,1.6c1.9,0.7,3.9,1,6,1s4.1-0.4,6-1
							c1.4-0.5,2.6-1.1,3.8-1.9c4.9-3.2,8.2-8.8,8.2-15.1C76.5,53.7,68.5,45.6,58.5,45.6z M53,16c4.1,0,7.5,3.4,7.5,7.5
							c0,4.1-3.4,7.5-7.5,7.5c-4.1,0-7.5-3.4-7.5-7.5C45.5,19.4,48.9,16,53,16z M31.6,49.8c-5.4,0-9.8-4.4-9.8-9.8
							c0-5.4,4.4-9.8,9.8-9.8c5.4,0,9.8,4.4,9.8,9.8C41.4,45.4,37,49.8,31.6,49.8z M68.3,73.8c-2.5,2.5-6,4-9.8,4
							c-3.6,0-6.9-1.4-9.4-3.7c-2.9-2.6-4.7-6.3-4.7-10.4c0-7.8,6.3-14.1,14.1-14.1c7.8,0,14.1,6.3,14.1,14.1
							C72.6,67.6,71,71.2,68.3,73.8z"/>
					</g>
				</g>
			</g>
			<g>
				<path class="st2" d="M59.3,63c2.4-0.3,4.6-2.3,5-4.7c0.4-1.9-0.2-4-1.6-5.4c-1.2-1.3-3-1.9-4.8-1.7c-2.3,0.2-4.3,1.8-5,4
					c-0.7,2-0.2,4.4,1.2,5.9C55.4,62.5,57.4,63.3,59.3,63z"/>
				<path class="st2" d="M52,74.4c0.7,0.4,1.5,0.8,2.3,1c1.3,0.4,2.8,0.7,4.2,0.7c1.5,0,2.9-0.2,4.3-0.7c0.8-0.3,1.6-0.6,2.3-1
					c1.2-0.7,2.4-1.6,3.3-2.6c0-1.6,0-3.2,0-4.7c-2.1-0.4-4.3-0.9-6.4-1.3c-1.2,1.7-5.8,1.8-6.9,0c-2.2,0.4-4.3,0.8-6.4,1.3
					c0,1.6,0,3.1,0,4.7C49.6,72.8,50.7,73.7,52,74.4z"/>
			</g>
			<g>
				<path class="st2" d="M32.1,39.5c1.6-0.2,3.1-1.5,3.4-3.1c0.3-1.3-0.1-2.7-1.1-3.6c-0.8-0.8-2-1.3-3.2-1.2
					c-1.5,0.1-2.9,1.2-3.4,2.7c-0.5,1.3-0.2,2.9,0.8,4C29.5,39.1,30.8,39.6,32.1,39.5z"/>
				<path class="st2" d="M27.2,47.1c0.5,0.3,1,0.5,1.6,0.7c0.9,0.3,1.8,0.5,2.8,0.5c1,0,2-0.2,2.9-0.5c0.5-0.2,1.1-0.4,1.6-0.7
					c0.8-0.5,1.6-1.1,2.2-1.8c0-1.1,0-2.1,0-3.2c-1.4-0.3-2.9-0.6-4.3-0.9c-0.8,1.2-3.9,1.2-4.6,0c-1.4,0.3-2.9,0.6-4.3,0.9
					c0,1.1,0,2.1,0,3.2C25.6,46,26.3,46.6,27.2,47.1z"/>
			</g>
			<g>
				<path class="st2" d="M53.5,23.1c1.3-0.1,2.4-1.2,2.7-2.5c0.2-1-0.1-2.1-0.9-2.9c-0.7-0.7-1.6-1-2.6-0.9c-1.2,0.1-2.3,1-2.7,2.1
					c-0.4,1.1-0.1,2.3,0.6,3.2C51.4,22.8,52.5,23.2,53.5,23.1z"/>
				<path class="st2" d="M49.6,29.2c0.4,0.2,0.8,0.4,1.2,0.5c0.7,0.2,1.5,0.4,2.3,0.4c0.8,0,1.6-0.1,2.3-0.4
					c0.4-0.1,0.8-0.3,1.2-0.5c0.7-0.4,1.3-0.8,1.8-1.4c0-0.8,0-1.7,0-2.5c-1.1-0.2-2.3-0.5-3.4-0.7c-0.6,0.9-3.1,1-3.7,0
					c-1.2,0.2-2.3,0.5-3.4,0.7c0,0.8,0,1.7,0,2.5C48.3,28.3,48.9,28.8,49.6,29.2z"/>
			</g>
		</g>
	</g>
</g>
</svg>
