<?xml version="1.0" encoding="utf-8"?>
<!-- Generator: Adobe Illustrator 19.1.0, SVG Export Plug-In . SVG Version: 6.00 Build 0)  -->
<svg version="1.1" id="Layer_1" xmlns="http://www.w3.org/2000/svg" xmlns:xlink="http://www.w3.org/1999/xlink" x="0px" y="0px"
	 viewBox="0 0 96 96" style="enable-background:new 0 0 96 96;" xml:space="preserve">
<style type="text/css">
	.st0{fill:#9E1D20;}
	.st1{opacity:0.6;}
	.st2{fill-rule:evenodd;clip-rule:evenodd;}
	.st3{fill:#FFFFFF;}
	.st4{fill-rule:evenodd;clip-rule:evenodd;fill:#FFFFFF;}
</style>
<g>
	<circle class="st0" cx="48" cy="48" r="48"/>
	<g class="st1">
		<g>
			<path d="M57.9,42.4c-2-0.4-4-0.8-6.1-1.2c-1.1,1.7-5.5,1.7-6.6,0c-2,0.4-4.1,0.8-6.1,1.2c0,1.4,0,2.1,0,3.5l9.2,8l9.6-8
				C57.9,44.5,57.9,43.8,57.9,42.4z"/>
		</g>
		<path d="M49.1,38.9c2.3-0.3,4.3-2.1,4.7-4.4c0.4-1.8-0.2-3.7-1.5-5c-1.1-1.2-2.8-1.8-4.5-1.6c-2.1,0.2-4,1.7-4.7,3.7
			c-0.7,1.9-0.2,4.1,1.1,5.5C45.5,38.5,47.4,39.2,49.1,38.9z"/>
		<path class="st2" d="M34.1,19.7h28.5c1.2,0,2.2,1,2.2,2.2v54.6c0,1.2-1,2.2-2.2,2.2H34.1c-1.2,0-2.1-1-2.1-2.2V21.9
			C32,20.7,32.9,19.7,34.1,19.7L34.1,19.7z M60,48.8c-3.2,3.1-6.6,6.1-10.2,8.8c2.2,1.6,4.4,3.1,6.5,4.5c1.3,0.8,2.5,1.5,3.7,2.2
			v1.9c-1.4-0.8-3-1.6-4.6-2.6c-2.4-1.5-4.7-3.1-7.1-4.9c-2.3,1.8-4.7,3.4-7,4.9c-1.5,0.9-2.9,1.7-4.2,2.4v-2
			c1.1-0.6,2.2-1.2,3.3-1.9c2.2-1.3,4.4-2.9,6.6-4.5c-3.4-2.6-6.8-5.5-9.9-8.4v-2.4c3.5,3.4,7.3,6.8,11.3,9.8
			c4.1-3.1,8.1-6.6,11.7-10.2V48.8z M66.5,67.2c1.6,0.5,3.1,0.9,4.3,1c1.4,0.1,2.6,0,3.3-0.4c0.7-0.3,1.1-1,1.3-1.8
			c0.2-1.2-0.1-2.8-0.9-4.9c-1.4-3.5-4.2-7.8-7.9-12.2v-2.6c4.4,5.1,7.8,10,9.5,14.2c1,2.4,1.3,4.3,1,5.8c-0.2,1.4-1,2.5-2.1,3.1
			c-1.1,0.6-2.6,0.8-4.3,0.6c-1.2-0.1-2.6-0.4-4.1-1V67.2z M30.6,42.5c-4.6-5.2-8.2-10.4-9.9-14.6c-0.9-2.4-1.2-4.3-1-5.8
			c0.2-1.4,0.9-2.5,2.1-3.1c1.1-0.6,2.5-0.8,4.3-0.6c1.5,0.1,3.2,0.6,5.2,1.3c-0.3,0.5-0.5,1-0.6,1.6c-1.8-0.7-3.4-1.1-4.8-1.2
			c-1.4-0.1-2.5,0-3.3,0.4c-0.6,0.3-1.1,1-1.2,1.8c-0.2,1.2,0.1,2.8,0.9,4.9c1.5,3.7,4.4,8.1,8.3,12.6V42.5z M30.6,68.8
			c-1.7,0.5-3.2,0.9-4.5,1.1c-1.8,0.2-3.2,0-4.3-0.6c-1.2-0.6-1.9-1.7-2.1-3.1c-0.2-1.5,0.1-3.4,1-5.8c1.7-4.2,5.3-9.4,9.9-14.6v2.6
			c-3.9,4.6-6.8,9-8.3,12.6c-0.8,2.1-1.1,3.7-0.9,4.9c0.1,0.8,0.6,1.5,1.2,1.8c0.8,0.4,1.9,0.5,3.3,0.4c1.4-0.1,3-0.5,4.7-1.2V68.8z
			 M66.5,39.4c3.7-4.4,6.5-8.6,7.9-12.2c0.8-2.1,1.1-3.7,0.9-4.9c-0.1-0.8-0.6-1.5-1.3-1.8c-0.7-0.4-1.9-0.5-3.3-0.4
			c-1.2,0.1-2.7,0.5-4.4,1.1c-0.1-0.6-0.3-1.1-0.7-1.6c1.8-0.6,3.5-1.1,4.9-1.2c1.7-0.2,3.2,0,4.3,0.6c1.1,0.6,1.9,1.7,2.1,3.1
			c0.2,1.5-0.1,3.4-1,5.8c-1.7,4.1-5.1,9.1-9.5,14.2V39.4z M46.2,71.7h4.3c0.1,0,0.3,0.1,0.3,0.3v3.7c0,0.2-0.1,0.3-0.3,0.3h-4.3
			c-0.1,0-0.3-0.1-0.3-0.3V72C45.9,71.8,46.1,71.7,46.2,71.7L46.2,71.7z M61.3,23.9v45.4H35.4V23.9H61.3z"/>
	</g>
	<g>
		<g>
			<path class="st3" d="M57.5,41.8c-2-0.4-4-0.8-6.1-1.2c-1.1,1.7-5.5,1.7-6.6,0c-2,0.4-4.1,0.8-6.1,1.2c0,1.4,0,2.1,0,3.5l9.2,8
				l9.6-8C57.5,43.9,57.5,43.2,57.5,41.8z"/>
		</g>
		<path class="st3" d="M48.7,38.3c2.3-0.3,4.3-2.1,4.7-4.4c0.4-1.8-0.2-3.7-1.5-5c-1.1-1.2-2.8-1.8-4.5-1.6c-2.1,0.2-4,1.7-4.7,3.7
			c-0.7,1.9-0.2,4.1,1.1,5.5C45,37.9,46.9,38.6,48.7,38.3z"/>
		<path class="st4" d="M33.6,19.1h28.5c1.2,0,2.2,1,2.2,2.2v54.6c0,1.2-1,2.2-2.2,2.2H33.6c-1.2,0-2.1-1-2.1-2.2V21.3
			C31.5,20.1,32.4,19.1,33.6,19.1L33.6,19.1z M59.6,48.1c-3.2,3.1-6.6,6.1-10.2,8.8c2.2,1.6,4.4,3.1,6.5,4.5
			c1.3,0.8,2.5,1.5,3.7,2.2v1.9c-1.4-0.8-3-1.6-4.6-2.6c-2.4-1.5-4.7-3.1-7.1-4.9c-2.3,1.8-4.7,3.4-7,4.9c-1.5,0.9-2.9,1.7-4.2,2.4
			v-2c1.1-0.6,2.2-1.2,3.3-1.9c2.2-1.3,4.4-2.9,6.6-4.5c-3.4-2.6-6.8-5.5-9.9-8.4v-2.4c3.5,3.4,7.3,6.8,11.3,9.8
			c4.1-3.1,8.1-6.6,11.7-10.2V48.1z M66,66.5c1.6,0.5,3.1,0.9,4.3,1c1.4,0.1,2.6,0,3.3-0.4c0.7-0.3,1.1-1,1.3-1.8
			c0.2-1.2-0.1-2.8-0.9-4.9c-1.4-3.5-4.2-7.8-7.9-12.2v-2.6c4.4,5.1,7.8,10,9.5,14.2c1,2.4,1.3,4.3,1,5.8c-0.2,1.4-1,2.5-2.1,3.1
			c-1.1,0.6-2.6,0.8-4.3,0.6c-1.2-0.1-2.6-0.4-4.1-1V66.5z M30.2,41.8c-4.6-5.2-8.2-10.4-9.9-14.6c-0.9-2.4-1.2-4.3-1-5.8
			c0.2-1.4,0.9-2.5,2.1-3.1c1.1-0.6,2.5-0.8,4.3-0.6c1.5,0.1,3.2,0.6,5.2,1.3c-0.3,0.5-0.5,1-0.6,1.6c-1.8-0.7-3.4-1.1-4.8-1.2
			c-1.4-0.1-2.5,0-3.3,0.4c-0.6,0.3-1.1,1-1.2,1.8c-0.2,1.2,0.1,2.8,0.9,4.9c1.5,3.7,4.4,8.1,8.3,12.6V41.8z M30.2,68.2
			c-1.7,0.5-3.2,0.9-4.5,1.1c-1.8,0.2-3.2,0-4.3-0.6c-1.2-0.6-1.9-1.7-2.1-3.1c-0.2-1.5,0.1-3.4,1-5.8c1.7-4.2,5.3-9.4,9.9-14.6v2.6
			c-3.9,4.6-6.8,9-8.3,12.6c-0.8,2.1-1.1,3.7-0.9,4.9c0.1,0.8,0.6,1.5,1.2,1.8c0.8,0.4,1.9,0.5,3.3,0.4c1.4-0.1,3-0.5,4.7-1.2V68.2z
			 M66,38.7c3.7-4.4,6.5-8.6,7.9-12.2c0.8-2.1,1.1-3.7,0.9-4.9c-0.1-0.8-0.6-1.5-1.3-1.8c-0.7-0.4-1.9-0.5-3.3-0.4
			c-1.2,0.1-2.7,0.5-4.4,1.1c-0.1-0.6-0.3-1.1-0.7-1.6c1.8-0.6,3.5-1.1,4.9-1.2c1.7-0.2,3.2,0,4.3,0.6c1.1,0.6,1.9,1.7,2.1,3.1
			c0.2,1.5-0.1,3.4-1,5.8c-1.7,4.1-5.1,9.1-9.5,14.2V38.7z M45.8,71.1h4.3c0.1,0,0.3,0.1,0.3,0.3v3.7c0,0.2-0.1,0.3-0.3,0.3h-4.3
			c-0.1,0-0.3-0.1-0.3-0.3v-3.7C45.5,71.2,45.6,71.1,45.8,71.1L45.8,71.1z M60.9,23.3v45.4H34.9V23.3H60.9z"/>
	</g>
</g>
</svg>
