<?xml version="1.0" encoding="utf-8"?>
<!-- Generator: Adobe Illustrator 19.1.0, SVG Export Plug-In . SVG Version: 6.00 Build 0)  -->
<svg version="1.1" id="Layer_1" xmlns="http://www.w3.org/2000/svg" xmlns:xlink="http://www.w3.org/1999/xlink" x="0px" y="0px"
	 viewBox="0 0 96 96" style="enable-background:new 0 0 96 96;" xml:space="preserve">
<style type="text/css">
	.st0{fill:#9E1D20;}
	.st1{opacity:0.6;}
	.st2{fill:#FFFFFF;}
</style>
<circle class="st0" cx="48" cy="48" r="48"/>
<g>
	<g class="st1">
		<g>
			<path d="M36,65c2.7-0.6,5.4-1.1,8.2-1.6c1.5,2.2,7.3,2.2,8.8,0c2.7,0.6,5.4,1.1,8.2,1.7c1.3,4.2,2.5,8.4,3.7,12.6
				c-3.3,0-25.6,0-32.6,0C33.5,73.3,34.8,69.2,36,65L36,65z"/>
		</g>
		<path d="M34.4,37h-4.8c-0.2,0-0.4,0.2-0.4,0.4v0.7c0,0.2,0.2,0.4,0.4,0.4h4.8c0.2,0,0.4-0.2,0.4-0.4v-0.7
			C34.9,37.2,34.7,37,34.4,37z"/>
		<path d="M35.9,31.8l-4.5-1.8c-0.2-0.1-0.5,0-0.6,0.2l-0.2,0.6c-0.1,0.2,0,0.5,0.2,0.6l4.5,1.8c0.2,0.1,0.5,0,0.6-0.2l0.2-0.6
			C36.3,32.1,36.1,31.9,35.9,31.8z"/>
		<path d="M38.2,28.6c0.2,0.2,0.4,0.2,0.6,0l0.5-0.5c0.2-0.2,0.2-0.4,0-0.6l-3.4-3.4c-0.2-0.2-0.4-0.2-0.6,0l-0.5,0.5
			c-0.2,0.2-0.2,0.4,0,0.6L38.2,28.6z"/>
		<path d="M42.6,25.5c0.1,0.2,0.3,0.3,0.6,0.2l0.6-0.3c0.2-0.1,0.3-0.3,0.2-0.6l-1.9-4.5c-0.1-0.2-0.3-0.3-0.6-0.2l-0.6,0.3
			c-0.2,0.1-0.3,0.3-0.2,0.6L42.6,25.5z"/>
		<path d="M48.2,24.7l0.7,0c0.2,0,0.4-0.2,0.4-0.4l0-4.8c0-0.2-0.2-0.4-0.4-0.4l-0.7,0c-0.2,0-0.4,0.2-0.4,0.4l0,4.8
			C47.8,24.5,48,24.7,48.2,24.7z"/>
		<path d="M53.4,25.6l0.6,0.2c0.2,0.1,0.5,0,0.6-0.2l1.8-4.5c0.1-0.2,0-0.5-0.2-0.6l-0.6-0.2c-0.2-0.1-0.5,0-0.6,0.2l-1.8,4.5
			C53,25.3,53.1,25.6,53.4,25.6z"/>
		<path d="M58.2,29c0.2,0.2,0.4,0.2,0.6,0l3.4-3.5c0.2-0.2,0.2-0.4,0-0.6l-0.5-0.5c-0.2-0.2-0.4-0.2-0.6,0l-3.4,3.5
			c-0.2,0.2-0.2,0.4,0,0.6L58.2,29z"/>
		<path d="M66.2,31.1l-0.3-0.6c-0.1-0.2-0.4-0.3-0.6-0.2l-4.4,1.9c-0.2,0.1-0.3,0.4-0.2,0.6l0.3,0.6c0.1,0.2,0.4,0.3,0.6,0.2
			l4.4-1.9C66.2,31.6,66.3,31.3,66.2,31.1z"/>
		<path d="M67.5,37.8c0-0.2-0.2-0.4-0.4-0.4l-4.8,0.1c-0.2,0-0.4,0.2-0.4,0.4l0,0.7c0,0.2,0.2,0.4,0.4,0.4l4.8-0.1
			c0.2,0,0.4-0.2,0.4-0.4L67.5,37.8z"/>
		<path d="M49.7,49.3c0.3-2.6,1.1-5.2,1.6-6.7c-0.1,0-0.2,0-0.3,0h0c-0.4,0-0.6-0.2-0.7-0.5c-0.1-0.2-0.2-0.2-0.3-0.2
			c-0.1,0-0.2,0.1-0.3,0.3c-0.1,0.2-0.3,0.5-0.7,0.5h0c-0.4,0-0.6-0.3-0.7-0.5c-0.1-0.2-0.2-0.3-0.3-0.3c-0.1,0-0.2,0.1-0.3,0.3
			c-0.1,0.2-0.3,0.5-0.7,0.5h0c-0.4,0-0.5-0.3-0.7-0.5c-0.1-0.2-0.2-0.3-0.3-0.3c-0.1,0-0.2,0.1-0.3,0.3c-0.1,0.2-0.3,0.5-0.7,0.5
			c0,0,0,0,0,0c-0.1,0-0.2,0-0.3-0.1c0.5,1.4,1.4,4,1.7,6.6c0.3,2.9,0.1,6.2,0.1,6.3c0,0,0,0,0,0.1h3c0,0,0-0.1,0-0.1
			C49.8,55.5,49.4,52,49.7,49.3z"/>
		<path d="M54.8,30.8c0,0-2.3-1.9-6.4-2c-4.1,0-6.4,2-6.4,2c-4,2.9-4.1,7.4-4.1,7.4c-0.5,3.7,3.7,10.1,3.7,10.1c2,3,2.7,6.8,2.8,7.4
			c0,0,0.1,0,0.1,0h1.8c0,0,0-0.1,0-0.1c0,0,0.3-3.3-0.1-6.2c-0.4-3.6-1.8-7-2-7.5c0,0-0.1-0.1-0.1-0.2c0-0.1,0.1-0.3,0.2-0.3h0
			c0.4,0,0.6,0.4,0.7,0.6c0.1,0.2,0.2,0.3,0.3,0.3c0.1,0,0.2-0.1,0.3-0.3c0.1-0.2,0.3-0.6,0.7-0.6l0,0.1h0h0.2v-0.1
			c0.3,0,0.5,0.3,0.6,0.5c0.1,0.2,0.1,0.3,0.2,0.3c0.1,0,0.2-0.1,0.3-0.3c0.1-0.2,0.3-0.6,0.7-0.6h0c0.4,0,0.6,0.3,0.7,0.6
			c0.1,0.2,0.2,0.3,0.3,0.3c0.1,0,0.2-0.1,0.3-0.3c0.1-0.2,0.3-0.6,0.7-0.6h0c0.4,0,0.6,0.3,0.7,0.5c0.1,0.2,0.2,0.3,0.3,0.3
			c0.1,0,0.2-0.1,0.3-0.3c0.1-0.2,0.3-0.6,0.7-0.6h0c0.1,0,0.2,0.1,0.2,0.3c0,0.1,0,0.1-0.1,0.2c-0.2,0.5-1.6,4-2,7.5
			c-0.3,2.7,0.1,6.1,0.1,6.2c0,0.1,0,0.1,0,0.2h2c0,0,0.1,0,0.1,0c0.1-0.6,0.8-4.4,2.8-7.4c0,0,4.2-6.4,3.7-10.1
			C58.8,38.2,58.8,33.7,54.8,30.8z"/>
		<path d="M45.2,57.1v3c0.7,0.4,1.5,0.6,2.3,0.7c1.5,0.2,3.1,0,4.4-0.7v-3H45.2z"/>
	</g>
	<g>
		<g>
			<path class="st2" d="M35.3,64.5c2.7-0.6,5.4-1.1,8.2-1.6c1.5,2.2,7.3,2.2,8.8,0c2.7,0.6,5.4,1.1,8.2,1.7
				c1.3,4.2,2.5,8.4,3.7,12.6c-3.3,0-25.6,0-32.6,0C32.9,72.8,34.1,68.7,35.3,64.5L35.3,64.5z"/>
		</g>
		<path class="st2" d="M33.8,36.5h-4.8c-0.2,0-0.4,0.2-0.4,0.4v0.7c0,0.2,0.2,0.4,0.4,0.4h4.8c0.2,0,0.4-0.2,0.4-0.4v-0.7
			C34.2,36.7,34,36.5,33.8,36.5z"/>
		<path class="st2" d="M35.3,31.3l-4.5-1.8c-0.2-0.1-0.5,0-0.6,0.2L30,30.3c-0.1,0.2,0,0.5,0.2,0.6l4.5,1.8c0.2,0.1,0.5,0,0.6-0.2
			l0.2-0.6C35.6,31.6,35.5,31.4,35.3,31.3z"/>
		<path class="st2" d="M37.5,28.1c0.2,0.2,0.4,0.2,0.6,0l0.5-0.5c0.2-0.2,0.2-0.4,0-0.6l-3.4-3.4c-0.2-0.2-0.4-0.2-0.6,0l-0.5,0.5
			c-0.2,0.2-0.2,0.4,0,0.6L37.5,28.1z"/>
		<path class="st2" d="M41.9,25c0.1,0.2,0.3,0.3,0.6,0.2l0.6-0.3c0.2-0.1,0.3-0.3,0.2-0.6l-1.9-4.5c-0.1-0.2-0.3-0.3-0.6-0.2
			l-0.6,0.3C40,20,39.9,20.3,40,20.5L41.9,25z"/>
		<path class="st2" d="M47.6,24.2l0.7,0c0.2,0,0.4-0.2,0.4-0.4l0-4.8c0-0.2-0.2-0.4-0.4-0.4l-0.7,0c-0.2,0-0.4,0.2-0.4,0.4l0,4.8
			C47.2,24,47.4,24.2,47.6,24.2z"/>
		<path class="st2" d="M52.7,25.1l0.6,0.2c0.2,0.1,0.5,0,0.6-0.2l1.8-4.5c0.1-0.2,0-0.5-0.2-0.6l-0.6-0.2c-0.2-0.1-0.5,0-0.6,0.2
			l-1.8,4.5C52.4,24.8,52.5,25.1,52.7,25.1z"/>
		<path class="st2" d="M57.5,28.5c0.2,0.2,0.4,0.2,0.6,0l3.4-3.5c0.2-0.2,0.2-0.4,0-0.6l-0.5-0.5c-0.2-0.2-0.4-0.2-0.6,0l-3.4,3.5
			c-0.2,0.2-0.2,0.4,0,0.6L57.5,28.5z"/>
		<path class="st2" d="M65.5,30.6L65.3,30c-0.1-0.2-0.4-0.3-0.6-0.2l-4.4,1.9c-0.2,0.1-0.3,0.4-0.2,0.6l0.3,0.6
			c0.1,0.2,0.4,0.3,0.6,0.2l4.4-1.9C65.5,31.1,65.6,30.8,65.5,30.6z"/>
		<path class="st2" d="M66.8,37.3c0-0.2-0.2-0.4-0.4-0.4L61.5,37c-0.2,0-0.4,0.2-0.4,0.4l0,0.7c0,0.2,0.2,0.4,0.4,0.4l4.8-0.1
			c0.2,0,0.4-0.2,0.4-0.4L66.8,37.3z"/>
		<path class="st2" d="M49,48.8c0.3-2.6,1.1-5.2,1.6-6.7c-0.1,0-0.2,0-0.3,0h0c-0.4,0-0.6-0.2-0.7-0.5c-0.1-0.2-0.2-0.2-0.3-0.2
			c-0.1,0-0.2,0.1-0.3,0.3c-0.1,0.2-0.3,0.5-0.7,0.5h0c-0.4,0-0.6-0.3-0.7-0.5c-0.1-0.2-0.2-0.3-0.3-0.3c-0.1,0-0.2,0.1-0.3,0.3
			c-0.1,0.2-0.3,0.5-0.7,0.5h0c-0.4,0-0.5-0.3-0.7-0.5c-0.1-0.2-0.2-0.3-0.3-0.3c-0.1,0-0.2,0.1-0.3,0.3c-0.1,0.2-0.3,0.5-0.7,0.5
			c0,0,0,0,0,0c-0.1,0-0.2,0-0.3-0.1c0.5,1.4,1.4,4,1.7,6.6c0.3,2.9,0.1,6.2,0.1,6.3c0,0,0,0,0,0.1h3c0,0,0-0.1,0-0.1
			C49.2,55,48.7,51.5,49,48.8z"/>
		<path class="st2" d="M54.1,30.3c0,0-2.3-1.9-6.4-2c-4.1,0-6.4,2-6.4,2c-4,2.9-4.1,7.4-4.1,7.4C36.9,41.3,41,47.8,41,47.8
			c2,3,2.7,6.8,2.8,7.4c0,0,0.1,0,0.1,0h1.8c0,0,0-0.1,0-0.1c0,0,0.3-3.3-0.1-6.2c-0.4-3.6-1.8-7-2-7.5c0,0-0.1-0.1-0.1-0.2
			c0-0.1,0.1-0.3,0.2-0.3h0c0.4,0,0.6,0.4,0.7,0.6c0.1,0.2,0.2,0.3,0.3,0.3c0.1,0,0.2-0.1,0.3-0.3c0.1-0.2,0.3-0.6,0.7-0.6l0,0.1h0
			h0.2V41c0.3,0,0.5,0.3,0.6,0.5c0.1,0.2,0.1,0.3,0.2,0.3c0.1,0,0.2-0.1,0.3-0.3c0.1-0.2,0.3-0.6,0.7-0.6h0c0.4,0,0.6,0.3,0.7,0.6
			c0.1,0.2,0.2,0.3,0.3,0.3c0.1,0,0.2-0.1,0.3-0.3c0.1-0.2,0.3-0.6,0.7-0.6h0c0.4,0,0.6,0.3,0.7,0.5c0.1,0.2,0.2,0.3,0.3,0.3
			c0.1,0,0.2-0.1,0.3-0.3c0.1-0.2,0.3-0.6,0.7-0.6h0c0.1,0,0.2,0.1,0.2,0.3c0,0.1,0,0.1-0.1,0.2c-0.2,0.5-1.6,4-2,7.5
			c-0.3,2.7,0.1,6.1,0.1,6.2c0,0.1,0,0.1,0,0.2h2c0,0,0.1,0,0.1,0c0.1-0.6,0.8-4.4,2.8-7.4c0,0,4.2-6.4,3.7-10.1
			C58.2,37.7,58.1,33.2,54.1,30.3z"/>
		<path class="st2" d="M44.6,56.6v3c0.7,0.4,1.5,0.6,2.3,0.7c1.5,0.2,3.1,0,4.4-0.7v-3H44.6z"/>
	</g>
</g>
</svg>
