<?xml version="1.0" encoding="utf-8"?>
<!-- Generator: Adobe Illustrator 19.1.0, SVG Export Plug-In . SVG Version: 6.00 Build 0)  -->
<svg version="1.1" id="Layer_1" xmlns="http://www.w3.org/2000/svg" xmlns:xlink="http://www.w3.org/1999/xlink" x="0px" y="0px"
	 viewBox="0 0 96 96" style="enable-background:new 0 0 96 96;" xml:space="preserve">
<style type="text/css">
	.st0{fill:#9E1D20;}
	.st1{fill:#FFFFFF;}
</style>
<g>
	<g>
		<circle class="st0" cx="48" cy="48" r="48"/>
	</g>
	<g>
		<path class="st1" d="M47.7,45.1c2.1-0.2,3.9-1.9,4.3-4c0.3-1.6-0.2-3.4-1.4-4.6c-1-1.1-2.6-1.6-4.1-1.5c-1.9,0.2-3.7,1.5-4.3,3.4
			c-0.6,1.7-0.2,3.7,1,5.1C44.4,44.7,46.1,45.4,47.7,45.1z"/>
		<path class="st1" d="M40.6,55.7c0.7,0.4,1.5,0.7,2.3,1c1.3,0.4,4.1,1,5.6,1c2.7,0,7.3-1.4,8.3-2.4c0-1.6,0-5.4,0-6.9
			c-2.1-0.4-4.2-0.8-6.3-1.2c-1.2,1.7-5.7,1.7-6.8,0c-2.1,0.4-4.2,0.8-6.3,1.3c0,1.5,0,3.1,0,4.6C38.3,54.2,39.4,55,40.6,55.7z"/>
		<path class="st1" d="M50,17.7h-3c-13.1,0.7-24.4,14.5-20.4,27.4c2.2,6.1,5.4,11.7,9.1,16.9c1.3,1.9,2.6,3.7,4,5.5
			c1.2,1.6,2.5,3.2,3.7,4.7c1.6,2,3.2,4.1,4.8,6.1h0.7c1.6-2.1,3.2-4.1,4.8-6.2c1.2-1.6,2.5-3.1,3.7-4.7c1.4-1.8,2.7-3.6,4-5.4
			c3.8-5.5,7.2-11.2,9.3-17.7C73.9,31.5,62.8,18.3,50,17.7z M61.3,52.8c-1.2,1.3-2.7,2.5-4.3,3.4c-1,0.5-2,1-3,1.3
			c-1.7,0.6-3.6,0.9-5.5,0.9c-1.9,0-3.8-0.3-5.5-0.9c-1.1-0.3-2.1-0.8-3-1.3c-1.6-0.9-3.1-2.1-4.3-3.4C32.8,49.7,31,45.5,31,41
			c0-9.6,7.8-17.5,17.5-17.5C58.1,23.5,66,31.3,66,41C66,45.5,64.2,49.7,61.3,52.8z"/>
		<path class="st1" d="M52.8,25.2c-0.9,0.5-1.6,1.4-1.6,2.4v5.3c0,1.3,1.3,2.6,2.6,2.6v4l4-4h6.5C62.7,30.3,58.3,26.3,52.8,25.2z"/>
	</g>
</g>
</svg>
