<?xml version="1.0" encoding="utf-8"?>
<!-- Generator: Adobe Illustrator 19.1.0, SVG Export Plug-In . SVG Version: 6.00 Build 0)  -->
<svg version="1.1" id="Layer_1" xmlns="http://www.w3.org/2000/svg" xmlns:xlink="http://www.w3.org/1999/xlink" x="0px" y="0px"
	 viewBox="0 0 96 96" style="enable-background:new 0 0 96 96;" xml:space="preserve">
<style type="text/css">
	.st0{fill:#9E1D20;}
	.st1{opacity:0.6;}
	.st2{fill:#FFFFFF;}
</style>
<circle class="st0" cx="48" cy="48" r="48"/>
<g class="st1">
	<g>
		<g>
			<g>
				<rect x="47.9" y="30.4" width="31.9" height="2.4"/>
				<rect x="47.9" y="35.9" width="31.9" height="2.4"/>
				<rect x="47.9" y="41.4" width="31.9" height="2.4"/>
				<rect x="47.9" y="46.9" width="19.8" height="2.4"/>
				<path d="M85,52.9V28.3c0-1.6-1.3-2.9-2.9-2.9H16.3c-1.6,0-2.9,1.3-2.9,2.9v41c0,1.6,1.3,2.9,2.9,2.9h49.8l1.3-1.4l0.9-0.9
					l14.4-14.5l1.1-1.1L85,52.9L85,52.9L85,52.9z M67.7,52.9c-0.9,0-1.6,0.7-1.6,1.6v15.3H16.3c-0.3,0-0.6-0.3-0.6-0.6v-41
					c0-0.3,0.3-0.6,0.6-0.6h65.8c0.3,0,0.6,0.3,0.6,0.6v24.7H67.7z"/>
			</g>
		</g>
		<g>
			<path d="M45.9,53.1c-3-0.6-6-1.2-9.1-1.8c-1.7,2.5-8.2,2.5-9.8,0c-3,0.6-6.1,1.2-9.1,1.8c0,4,0,7.9,0,11.9h28
				C46,61.1,46,57.1,45.9,53.1z"/>
		</g>
		<path d="M32.8,47.9c3.4-0.4,6.4-3.2,7-6.5c0.6-2.7-0.3-5.6-2.2-7.5c-1.7-1.8-4.2-2.6-6.7-2.4c-3.1,0.3-6,2.5-7,5.5
			c-1,2.8-0.3,6.1,1.7,8.2C27.4,47.3,30.2,48.3,32.8,47.9z"/>
	</g>
</g>
<g>
	<g>
		<g>
			<g>
				<rect x="47.6" y="29.9" class="st2" width="31.9" height="2.4"/>
				<rect x="47.6" y="35.4" class="st2" width="31.9" height="2.4"/>
				<rect x="47.6" y="40.9" class="st2" width="31.9" height="2.4"/>
				<rect x="47.6" y="46.4" class="st2" width="19.8" height="2.4"/>
				<path class="st2" d="M84.7,52.5V27.8c0-1.6-1.3-2.9-2.9-2.9H16c-1.6,0-2.9,1.3-2.9,2.9v41c0,1.6,1.3,2.9,2.9,2.9h49.8l1.3-1.4
					l0.9-0.9l14.4-14.5l1.1-1.1L84.7,52.5L84.7,52.5L84.7,52.5z M67.4,52.5c-0.9,0-1.6,0.7-1.6,1.6v15.3H16c-0.3,0-0.6-0.3-0.6-0.6
					v-41c0-0.3,0.3-0.6,0.6-0.6h65.8c0.3,0,0.6,0.3,0.6,0.6v24.7H67.4z"/>
			</g>
		</g>
		<g>
			<path class="st2" d="M45.6,52.7c-3-0.6-6-1.2-9.1-1.8c-1.7,2.5-8.2,2.5-9.8,0c-3,0.6-6.1,1.2-9.1,1.8c0,4,0,7.9,0,11.9h28
				C45.7,60.6,45.7,56.6,45.6,52.7z"/>
		</g>
		<path class="st2" d="M32.6,47.4c3.4-0.4,6.4-3.2,7-6.5c0.6-2.7-0.3-5.6-2.2-7.5c-1.7-1.8-4.2-2.6-6.7-2.4c-3.1,0.3-6,2.5-7,5.5
			c-1,2.8-0.3,6.1,1.7,8.2C27.1,46.8,29.9,47.8,32.6,47.4z"/>
	</g>
</g>
</svg>
